<svg width="106" height="45" viewBox="0 0 106 45" fill="none" xmlns="http://www.w3.org/2000/svg">
<rect x="1" y="1" width="104" height="43" rx="21.5" stroke="#1B1B1B" stroke-width="2"/>
<path d="M52.3843 27V25.586H47.1763V17.2H45.6223V27H52.3843ZM57.1668 25.852C56.5088 25.852 55.9768 25.628 55.5428 25.194C55.1088 24.76 54.8988 24.214 54.8988 23.556C54.8988 22.912 55.1088 22.366 55.5428 21.932C55.9768 21.498 56.5228 21.274 57.1668 21.274C57.8108 21.274 58.3428 21.498 58.7768 21.932C59.2108 22.366 59.4208 22.912 59.4208 23.556C59.4208 24.214 59.2108 24.76 58.7768 25.194C58.3428 25.628 57.8108 25.852 57.1668 25.852ZM57.1668 27.182C58.2588 27.182 59.1548 26.832 59.8688 26.132C60.5828 25.418 60.9328 24.564 60.9328 23.556C60.9328 22.548 60.5828 21.694 59.8688 20.994C59.1548 20.294 58.2588 19.944 57.1668 19.944C56.0608 19.944 55.1648 20.294 54.4508 20.994C53.7368 21.694 53.3868 22.548 53.3868 23.556C53.3868 24.578 53.7368 25.432 54.4508 26.132C55.1648 26.832 56.0608 27.182 57.1668 27.182ZM67.8915 21.022C67.3315 20.308 66.5195 19.944 65.4415 19.944C64.4755 19.944 63.6775 20.28 63.0475 20.966C62.4175 21.638 62.1095 22.464 62.1095 23.444C62.1095 24.438 62.4175 25.264 63.0475 25.95C63.6775 26.636 64.4755 26.972 65.4415 26.972C66.4915 26.972 67.3175 26.608 67.8915 25.894V26.412C67.8915 27.882 66.8275 28.54 65.3715 28.54C64.4335 28.54 63.5935 28.316 62.8515 27.868V29.254C63.5655 29.66 64.4615 29.87 65.5395 29.87C66.6175 29.87 67.5275 29.576 68.2695 28.974C69.0255 28.372 69.4035 27.518 69.4035 26.384V20.126H67.8915V21.022ZM65.8475 25.642C65.2175 25.642 64.6855 25.432 64.2655 25.012C63.8455 24.592 63.6355 24.074 63.6355 23.458C63.6355 22.842 63.8455 22.324 64.2655 21.904C64.6855 21.484 65.2175 21.274 65.8475 21.274C66.7435 21.274 67.5415 21.75 67.8915 22.464V24.466C67.5415 25.152 66.7435 25.642 65.8475 25.642ZM76.7883 27V20.126H75.2763V27H76.7883ZM76.0323 18.894C76.5503 18.894 76.9703 18.488 76.9703 17.942C76.9703 17.396 76.5503 16.976 76.0323 16.976C75.4863 16.976 75.0803 17.396 75.0803 17.942C75.0803 18.488 75.4863 18.894 76.0323 18.894ZM80.5861 22.478C80.9781 21.848 81.7621 21.358 82.5321 21.358C83.4281 21.358 84.1421 21.792 84.1421 23.136V27H85.6541V22.8C85.6541 21.022 84.7301 19.944 83.1061 19.944C82.0981 19.944 81.2581 20.308 80.5861 21.036V20.126H79.0741V27H80.5861V22.478Z" fill="#1B1B1B"/>
<path d="M20.4127 29.0316L19.4143 29.0886L19.4387 29.5164L19.7653 29.7938L20.4127 29.0316ZM36.5892 29.03L37.2367 29.7921L37.5632 29.5146L37.5876 29.0868L36.5892 29.03ZM24.8718 17.9004C24.8718 15.9939 26.4698 14.4004 28.5009 14.4004V12.4004C25.4189 12.4004 22.8718 14.8364 22.8718 17.9004H24.8718ZM28.5009 14.4004C30.532 14.4004 32.13 15.9939 32.13 17.9004H34.13C34.13 14.8364 31.5829 12.4004 28.5009 12.4004V14.4004ZM21.4 28.5879C21.4 25.7238 23.2134 23.2486 25.8217 22.2188L25.0873 20.3586C21.7671 21.6694 19.4 24.8484 19.4 28.5879H21.4ZM28.5009 21.4004C27.5775 21.4004 26.74 21.0692 26.1023 20.5269L24.8067 22.0505C25.7972 22.8927 27.0912 23.4004 28.5009 23.4004V21.4004ZM26.1023 20.5269C25.3419 19.8803 24.8718 18.9407 24.8718 17.9004H22.8718C22.8718 19.5626 23.6271 21.0474 24.8067 22.0505L26.1023 20.5269ZM32.13 17.9004C32.13 18.9407 31.6599 19.8803 30.8994 20.5269L32.195 22.0505C33.3747 21.0474 34.13 19.5626 34.13 17.9004H32.13ZM30.8994 20.5269C30.2617 21.0692 29.4243 21.4004 28.5009 21.4004V23.4004C29.9106 23.4004 31.2046 22.8927 32.195 22.0505L30.8994 20.5269ZM37.6018 28.5879C37.6018 24.8484 35.2347 21.6694 31.9145 20.3586L31.18 22.2188C33.7883 23.2486 35.6018 25.7238 35.6018 28.5879H37.6018ZM19.4 28.5879C19.4 28.7558 19.4048 28.9228 19.4143 29.0886L21.411 28.9746C21.4037 28.8467 21.4 28.7178 21.4 28.5879H19.4ZM28.5 31C25.6618 31 23.066 29.9731 21.06 28.2694L19.7653 29.7938C22.1192 31.793 25.1699 33 28.5 33V31ZM35.6018 28.5879C35.6018 28.7173 35.5981 28.8457 35.5908 28.9732L37.5876 29.0868C37.597 28.9216 37.6018 28.7552 37.6018 28.5879H35.6018ZM35.9417 28.2679C33.9355 29.9725 31.339 31 28.5 31V33C31.831 33 34.8825 31.7923 37.2367 29.7921L35.9417 28.2679Z" fill="#1B1B1B"/>
</svg>
