<svg width="20" height="12" viewBox="0 0 20 12" fill="none" xmlns="http://www.w3.org/2000/svg">
<path d="M20 0H0V11.668H20V0Z" fill="#2A388F"/>
<path d="M10 1.29688L9.85547 1.74219H9.38281L9.76563 2.01953L9.61719 2.46875L10 2.19141L10.3828 2.46875L10.2344 2.01953L10.6172 1.74219H10.1445L10 1.29688Z" fill="#F5CB29"/>
<path d="M10.1445 9.51953L10 9.07422L9.85547 9.51953H9.38281L9.76563 9.79688L9.61719 10.2461L10 9.96875L10.3828 10.2461L10.2344 9.79688L10.6172 9.51953H10.1445Z" fill="#F5CB29"/>
<path d="M6.10937 6.07812L6.49219 6.35547L6.34766 5.91016L6.72656 5.63281H6.25781L6.10937 5.18359L5.96484 5.63281H5.49609L5.875 5.91016L5.73047 6.35547L6.10937 6.07812Z" fill="#F5CB29"/>
<path d="M8.05469 1.81641L7.91016 2.26562H7.4375L7.82031 2.53906L7.67578 2.98828L8.05469 2.71094L8.4375 2.98828L8.28906 2.53906L8.67188 2.26562H8.20313L8.05469 1.81641Z" fill="#F5CB29"/>
<path d="M6.63281 3.23828L6.48828 3.6875H6.01562L6.39844 3.96484L6.25 4.41016L6.63281 4.13672L7.01172 4.41016L6.86719 3.96484L7.25 3.6875H6.77734L6.63281 3.23828Z" fill="#F5CB29"/>
<path d="M6.77734 7.57812L6.63281 7.12891L6.48828 7.57812H6.01562L6.39844 7.85156L6.25 8.30078L6.63281 8.02344L7.01172 8.30078L6.86719 7.85156L7.25 7.57812H6.77734Z" fill="#F5CB29"/>
<path d="M8.20313 9L8.05469 8.55078L7.91016 9H7.4375L7.82031 9.27734L7.67578 9.72266L8.05469 9.44922L8.4375 9.72266L8.28906 9.27734L8.67188 9H8.20313Z" fill="#F5CB29"/>
<path d="M14.5039 5.63281H14.0352L13.8906 5.18359L13.7422 5.63281H13.2734L13.6523 5.91016L13.5078 6.35547L13.8906 6.07812L14.2695 6.35547L14.125 5.91016L14.5039 5.63281Z" fill="#F5CB29"/>
<path d="M11.9453 1.81641L11.7969 2.26562H11.3281L11.7109 2.53906L11.5625 2.98828L11.9453 2.71094L12.3242 2.98828L12.1797 2.53906L12.5625 2.26562H12.0898L11.9453 1.81641Z" fill="#F5CB29"/>
<path d="M13.1328 3.96484L12.9883 4.41016L13.3672 4.13672L13.75 4.41016L13.6055 3.96484L13.9844 3.6875H13.5117L13.3672 3.23828L13.2227 3.6875H12.75L13.1328 3.96484Z" fill="#F5CB29"/>
<path d="M13.5117 7.57812L13.3672 7.12891L13.2227 7.57812H12.75L13.1328 7.85156L12.9883 8.30078L13.3672 8.02344L13.75 8.30078L13.6055 7.85156L13.9844 7.57812H13.5117Z" fill="#F5CB29"/>
<path d="M12.0898 9L11.9453 8.55078L11.7969 9H11.3281L11.7109 9.27734L11.5625 9.72266L11.9453 9.44922L12.3242 9.72266L12.1797 9.27734L12.5625 9H12.0898Z" fill="#F5CB29"/>
</svg>
