<svg width="20" height="12" viewBox="0 0 20 12" fill="none" xmlns="http://www.w3.org/2000/svg">
<path d="M20 0H0V11.668H20V0Z" fill="white"/>
<path d="M13.3906 4.21875L20 0.515625V0H19.543L12.0078 4.21875H13.3906Z" fill="#BD0034"/>
<path d="M13.0781 7.68359L20 11.5547V10.7813L14.4609 7.68359H13.0781Z" fill="#BD0034"/>
<path d="M0 0.886719L5.91797 4.21875H7.30469L0 0.109375V0.886719Z" fill="#BD0034"/>
<path d="M6.98828 7.68359L0 11.5977V11.668H1.26172L8.375 7.68359H6.98828Z" fill="#BD0034"/>
<path d="M18.6328 0H11.6289V3.92188L18.6328 0Z" fill="#1A237B"/>
<path d="M8.53516 0H1.5625L8.53516 3.92188V0Z" fill="#1A237B"/>
<path d="M20 4.21875V1.53906L15.25 4.21875H20Z" fill="#1A237B"/>
<path d="M20 10.3281V7.68359H15.25L20 10.3281Z" fill="#1A237B"/>
<path d="M1.95703 11.668H8.53516V7.97656L1.95703 11.668Z" fill="#1A237B"/>
<path d="M11.6289 11.668H18.2266L11.6289 7.97656V11.668Z" fill="#1A237B"/>
<path d="M0 7.68359V10.4492L4.91406 7.68359H0Z" fill="#1A237B"/>
<path d="M0 4.21875H4.91406L0 1.44531V4.21875Z" fill="#1A237B"/>
<path d="M9.15625 0V4.91016H0V6.98828H9.15625V11.668H11.0117V6.98828H20V4.91016H11.0117V0H9.15625Z" fill="#BD0034"/>
</svg>
