<svg width="20" height="12" viewBox="0 0 20 12" fill="none" xmlns="http://www.w3.org/2000/svg">
<path d="M20 0H0V11.668H20V0Z" fill="#50AEC4"/>
<path d="M1.31249 8.22656C1.31249 7.99219 1.52343 7.875 1.68749 7.875C1.91015 7.875 2.02734 8.00781 2.02734 8.17969C2.02734 8.27734 2.00781 8.33984 1.96484 8.43359C1.96484 8.43359 1.59765 9.19531 1.45703 9.48828C1.43749 9.52344 1.43359 9.56641 1.43359 9.62891C1.43359 9.72266 1.52734 9.80078 1.62109 9.80469C1.70703 9.80859 1.80468 9.72266 1.80468 9.62891C1.80468 9.51172 1.74609 9.46094 1.68359 9.46094C1.60546 9.46094 1.57812 9.49219 1.57812 9.54688C1.57812 9.58594 1.59765 9.60156 1.62109 9.60156C1.68749 9.60156 1.66796 9.51562 1.66796 9.51562C1.69921 9.52344 1.72656 9.55469 1.71093 9.59766C1.73437 9.60156 1.75781 9.61719 1.77343 9.63672C1.75781 9.65234 1.73437 9.66797 1.71093 9.67188C1.72656 9.72266 1.70703 9.74609 1.66015 9.75781C1.66796 9.73828 1.66796 9.71875 1.66796 9.70313C1.59765 9.72266 1.49218 9.69141 1.49218 9.57031C1.49218 9.44922 1.57421 9.35156 1.73046 9.375C1.69531 9.35547 1.67578 9.32031 1.67187 9.28125C1.69921 9.29297 1.73046 9.29297 1.73046 9.29297C1.71093 9.26172 1.68749 9.23438 1.68749 9.17188C1.71484 9.18359 1.74218 9.21094 1.78124 9.19531C1.72265 9.08203 1.79296 8.92578 1.97656 8.88672C1.91015 8.96484 1.8789 9.04688 1.8789 9.13281C1.8789 9.40234 1.95312 9.44922 1.95312 9.63672C1.95312 9.71484 1.91406 9.80078 1.83203 9.85938V9.85547C1.88671 9.87109 1.91796 9.89453 1.93749 9.92969C1.8164 9.96484 1.64062 9.96484 1.54296 9.92578C1.43359 9.91406 1.35937 9.82812 1.33593 9.78906C1.31249 9.74609 1.26953 9.59375 1.33593 9.45703C1.41015 9.30469 1.74999 8.58594 1.85546 8.35938C1.8789 8.3125 1.89062 8.26172 1.89062 8.20703C1.89062 8.07031 1.76171 8.01953 1.6914 8.01953C1.60546 8.01953 1.51562 8.08594 1.51562 8.16797C1.51562 8.21875 1.54296 8.25 1.58593 8.25C1.68359 8.25 1.67578 8.16797 1.65624 8.11328C1.71874 8.14063 1.7539 8.1875 1.74218 8.24219C1.77734 8.24609 1.80859 8.26172 1.83984 8.29688C1.8164 8.32813 1.78515 8.34766 1.74218 8.35156C1.76171 8.42969 1.70703 8.46484 1.65624 8.48438C1.67187 8.42578 1.68359 8.35938 1.58593 8.35938C1.51171 8.35938 1.45703 8.34766 1.42187 8.30078C1.42187 8.36328 1.41406 8.61328 1.41406 8.61328C1.41015 8.70703 1.53906 8.70312 1.62109 8.67578C1.58984 8.78125 1.52734 8.83984 1.3789 8.82813C1.41406 8.84375 1.45312 8.875 1.45312 8.94141C1.45312 9.02734 1.38281 9.125 1.33593 9.15625L1.31249 8.22656Z" fill="#F5C933"/>
<path d="M1.35938 8.22656C1.35938 7.99219 1.14844 7.875 0.984375 7.875C0.761719 7.875 0.644531 8.00781 0.644531 8.17969C0.644531 8.27734 0.664063 8.33984 0.707031 8.43359C0.707031 8.43359 1.07422 9.19531 1.21484 9.48828C1.23438 9.52344 1.23828 9.56641 1.23828 9.62891C1.23828 9.72266 1.14453 9.80078 1.05078 9.80469C0.964844 9.80859 0.867188 9.72266 0.867188 9.62891C0.867188 9.51172 0.925781 9.46094 0.988281 9.46094C1.06641 9.46094 1.09375 9.49219 1.09375 9.54688C1.09375 9.58594 1.07422 9.60156 1.05078 9.60156C0.984375 9.60156 1.00391 9.51562 1.00391 9.51562C0.972656 9.52344 0.945312 9.55469 0.960938 9.59766C0.9375 9.60156 0.914062 9.61719 0.898438 9.63672C0.914062 9.65234 0.9375 9.66797 0.960938 9.67188C0.945312 9.72266 0.964844 9.74609 1.01172 9.75781C1.00391 9.73828 1.00391 9.71875 1.00391 9.70313C1.07422 9.72266 1.17969 9.69141 1.17969 9.57031C1.17969 9.44922 1.09766 9.35156 0.941406 9.375C0.976562 9.35547 0.996094 9.32031 1 9.28125C0.972656 9.29297 0.941406 9.29297 0.941406 9.29297C0.960938 9.26172 0.984375 9.23438 0.984375 9.17188C0.957031 9.18359 0.929687 9.21094 0.890625 9.19531C0.949219 9.08203 0.878906 8.92578 0.695312 8.88672C0.761719 8.96484 0.792969 9.04688 0.792969 9.13281C0.792969 9.40234 0.71875 9.44922 0.71875 9.63672C0.71875 9.71484 0.757812 9.80078 0.839844 9.85938V9.85547C0.785156 9.87109 0.753906 9.89453 0.734375 9.92969C0.855469 9.96484 1.03125 9.96484 1.12891 9.92578C1.23828 9.91406 1.3125 9.82812 1.33594 9.78906C1.35938 9.74609 1.40234 9.59375 1.33594 9.45703C1.26172 9.30469 0.921875 8.58594 0.816406 8.35938C0.792969 8.3125 0.78125 8.26172 0.78125 8.20703C0.78125 8.07031 0.910156 8.01953 0.980469 8.01953C1.06641 8.01953 1.15625 8.08594 1.15625 8.16797C1.15625 8.21875 1.12891 8.25 1.08594 8.25C0.988281 8.25 0.996094 8.16797 1.01562 8.11328C0.953125 8.14063 0.917969 8.1875 0.929687 8.24219C0.894531 8.24609 0.863281 8.26172 0.832031 8.29688C0.855469 8.32813 0.886719 8.34766 0.929687 8.35156C0.910156 8.42969 0.964844 8.46484 1.01562 8.48438C1 8.42578 0.988281 8.35938 1.08594 8.35938C1.16016 8.35938 1.21484 8.34766 1.25 8.30078C1.25 8.36328 1.25781 8.61328 1.25781 8.61328C1.26172 8.70703 1.13281 8.70312 1.05078 8.67578C1.08203 8.78125 1.14453 8.83984 1.29297 8.82813C1.25781 8.84375 1.21875 8.875 1.21875 8.94141C1.21875 9.02734 1.28906 9.125 1.33594 9.15625L1.35938 8.22656Z" fill="#F5C933"/>
<path d="M1.33594 10.7502C1.33594 10.7502 1.44531 10.8439 1.48437 10.7971C1.54687 10.7229 1.29688 10.3479 1.29688 10.215C1.29688 10.0002 1.44141 9.9416 1.62109 9.91035C1.74219 9.89082 1.9375 9.91817 1.9375 9.91817C1.90234 9.96895 1.875 9.98067 1.81641 9.98457C1.88672 10.0197 1.95703 10.0979 1.95703 10.2189C1.95703 10.4064 1.87891 10.4807 1.87891 10.6916C1.87891 10.8088 1.97266 10.9572 1.97266 10.9572C1.80469 10.9416 1.71875 10.7854 1.76953 10.6604C1.74219 10.6564 1.71875 10.6643 1.69531 10.6838C1.68359 10.6486 1.70312 10.6096 1.73047 10.5744C1.71094 10.5627 1.69531 10.5705 1.66016 10.5783C1.66406 10.5432 1.68359 10.5041 1.73828 10.4689C1.58594 10.508 1.49219 10.4025 1.49219 10.2932C1.49219 10.2111 1.55078 10.1486 1.60938 10.1486C1.62891 10.1486 1.65625 10.1564 1.67187 10.1682C1.68359 10.1447 1.67578 10.1135 1.66406 10.09C1.70703 10.1018 1.73438 10.1252 1.71484 10.176C1.74609 10.1799 1.77344 10.1916 1.78906 10.2111C1.77344 10.2346 1.74609 10.2463 1.71484 10.2463C1.73828 10.2932 1.71094 10.3205 1.67578 10.3439C1.67578 10.3439 1.69922 10.2463 1.63672 10.2463C1.60938 10.2463 1.58203 10.2541 1.58203 10.2971C1.58203 10.3322 1.61328 10.383 1.6875 10.3791C1.75781 10.3752 1.81641 10.3283 1.81641 10.215C1.81641 10.1096 1.73047 10.0549 1.61719 10.051C1.51563 10.0471 1.4375 10.1018 1.4375 10.2072C1.4375 10.3479 1.64062 10.6643 1.64062 10.7893C1.64062 10.883 1.55469 10.9338 1.47266 10.9338C1.36719 10.9338 1.27734 10.8283 1.27734 10.8283L1.33594 10.7502Z" fill="#F5C933"/>
<path d="M1.33594 10.7502C1.33594 10.7502 1.22656 10.8439 1.1875 10.7971C1.125 10.7229 1.375 10.3479 1.375 10.215C1.375 10.0002 1.23047 9.9416 1.05078 9.91035C0.929688 9.89082 0.734375 9.91817 0.734375 9.91817C0.769531 9.96895 0.796875 9.98067 0.855469 9.98457C0.785156 10.0197 0.714844 10.0979 0.714844 10.2189C0.714844 10.4064 0.792969 10.4807 0.792969 10.6916C0.792969 10.8088 0.699219 10.9572 0.699219 10.9572C0.867188 10.9416 0.953125 10.7854 0.902344 10.6604C0.929688 10.6564 0.953125 10.6643 0.976562 10.6838C0.988281 10.6486 0.96875 10.6096 0.941406 10.5744C0.960938 10.5627 0.976562 10.5705 1.01172 10.5783C1.00781 10.5432 0.988281 10.5041 0.933594 10.4689C1.08594 10.508 1.17969 10.4025 1.17969 10.2932C1.17969 10.2111 1.12109 10.1486 1.0625 10.1486C1.04297 10.1486 1.01563 10.1564 1 10.1682C0.988281 10.1447 0.996094 10.1135 1.00781 10.09C0.964844 10.1018 0.9375 10.1252 0.957031 10.176C0.925781 10.1799 0.898438 10.1916 0.882813 10.2111C0.898438 10.2346 0.925781 10.2463 0.957031 10.2463C0.933594 10.2932 0.960938 10.3205 0.996094 10.3439C0.996094 10.3439 0.972656 10.2463 1.03516 10.2463C1.0625 10.2463 1.08984 10.2541 1.08984 10.2971C1.08984 10.3322 1.05859 10.383 0.984375 10.3791C0.914063 10.3752 0.855469 10.3283 0.855469 10.215C0.855469 10.1096 0.941406 10.0549 1.05469 10.051C1.15625 10.0471 1.23438 10.1018 1.23438 10.2072C1.23438 10.3479 1.03125 10.6643 1.03125 10.7893C1.03125 10.883 1.11719 10.9338 1.19922 10.9338C1.30469 10.9338 1.39453 10.8283 1.39453 10.8283L1.33594 10.7502Z" fill="#F5C933"/>
<path d="M1.31249 4.14062C1.31249 3.90625 1.52343 3.78906 1.68749 3.78906C1.91015 3.78906 2.02734 3.92188 2.02734 4.09375C2.02734 4.19141 2.00781 4.25391 1.96484 4.34766C1.96484 4.34766 1.59765 5.10938 1.45703 5.40234C1.43749 5.4375 1.43359 5.48047 1.43359 5.54297C1.43359 5.63672 1.52734 5.71484 1.62109 5.71875C1.70703 5.72266 1.80468 5.63672 1.80468 5.54297C1.80468 5.42578 1.74609 5.375 1.68359 5.375C1.60546 5.375 1.57812 5.40625 1.57812 5.46094C1.57812 5.5 1.59765 5.51562 1.62109 5.51562C1.68749 5.51562 1.66796 5.42969 1.66796 5.42969C1.69921 5.4375 1.72656 5.46875 1.71093 5.51172C1.73437 5.51563 1.75781 5.53125 1.77343 5.55078C1.75781 5.56641 1.73437 5.58203 1.71093 5.58594C1.72656 5.63672 1.70703 5.66016 1.66015 5.67187C1.66796 5.65234 1.66796 5.63672 1.66796 5.61719C1.59765 5.63672 1.49218 5.60547 1.49218 5.48438C1.49218 5.36328 1.57421 5.26563 1.73046 5.28906C1.69531 5.26953 1.67578 5.23438 1.67187 5.19531C1.69921 5.20703 1.73046 5.20703 1.73046 5.20703C1.71093 5.17578 1.68749 5.14844 1.68749 5.08594C1.71484 5.09766 1.74218 5.125 1.78124 5.10938C1.72265 4.99609 1.79296 4.83984 1.97656 4.80078C1.91015 4.87891 1.8789 4.96094 1.8789 5.04687C1.8789 5.31641 1.95312 5.36328 1.95312 5.55078C1.95312 5.62891 1.91406 5.71484 1.83203 5.77344V5.76953C1.88671 5.78516 1.91796 5.80859 1.93749 5.84375C1.8164 5.87891 1.64062 5.87891 1.54296 5.83984C1.43359 5.82813 1.35937 5.74219 1.33593 5.70312C1.31249 5.66016 1.26953 5.50781 1.33593 5.37109C1.41015 5.21875 1.74999 4.5 1.85546 4.27344C1.8789 4.22656 1.89062 4.17578 1.89062 4.12109C1.89062 3.98438 1.76171 3.93359 1.6914 3.93359C1.60546 3.93359 1.51562 4 1.51562 4.08203C1.51562 4.13281 1.54296 4.16406 1.58593 4.16406C1.68359 4.16406 1.67578 4.08203 1.65624 4.02734C1.71874 4.05469 1.7539 4.10156 1.74218 4.15625C1.77734 4.16016 1.80859 4.17578 1.83984 4.21094C1.8164 4.24219 1.78515 4.26172 1.74218 4.26562C1.76171 4.34375 1.70703 4.37891 1.65624 4.39844C1.67187 4.33984 1.68359 4.27344 1.58593 4.27344C1.51171 4.27344 1.45703 4.26172 1.42187 4.21484C1.42187 4.27734 1.41406 4.52734 1.41406 4.52734C1.41015 4.62109 1.53906 4.61719 1.62109 4.58984C1.58984 4.69531 1.52734 4.75391 1.3789 4.74219C1.41406 4.75781 1.45312 4.78906 1.45312 4.85547C1.45312 4.94141 1.38281 5.03906 1.33593 5.06641L1.31249 4.14062Z" fill="#F5C933"/>
<path d="M1.35938 4.14062C1.35938 3.90625 1.14844 3.78906 0.984375 3.78906C0.761719 3.78906 0.644531 3.92188 0.644531 4.09375C0.644531 4.19141 0.664063 4.25391 0.707031 4.34766C0.707031 4.34766 1.07422 5.10938 1.21484 5.40234C1.23438 5.4375 1.23828 5.48047 1.23828 5.54297C1.23828 5.63672 1.14453 5.71484 1.05078 5.71875C0.964844 5.72266 0.867188 5.63672 0.867188 5.54297C0.867188 5.42578 0.925781 5.375 0.988281 5.375C1.06641 5.375 1.09375 5.40625 1.09375 5.46094C1.09375 5.5 1.07422 5.51562 1.05078 5.51562C0.984375 5.51562 1.00391 5.42969 1.00391 5.42969C0.972656 5.4375 0.945312 5.46875 0.960938 5.51172C0.9375 5.51563 0.914062 5.53125 0.898438 5.55078C0.914062 5.56641 0.9375 5.58203 0.960938 5.58594C0.945312 5.63672 0.964844 5.66016 1.01172 5.67187C1.00391 5.65234 1.00391 5.63672 1.00391 5.61719C1.07422 5.63672 1.17969 5.60547 1.17969 5.48438C1.17969 5.36328 1.09766 5.26563 0.941406 5.28906C0.976562 5.26953 0.996094 5.23438 1 5.19531C0.972656 5.20703 0.941406 5.20703 0.941406 5.20703C0.960938 5.17578 0.984375 5.14844 0.984375 5.08594C0.957031 5.09766 0.929687 5.125 0.890625 5.10938C0.949219 4.99609 0.878906 4.83984 0.695312 4.80078C0.761719 4.87891 0.792969 4.96094 0.792969 5.04687C0.792969 5.31641 0.71875 5.36328 0.71875 5.55078C0.71875 5.62891 0.757812 5.71484 0.839844 5.77344V5.76953C0.785156 5.78516 0.753906 5.80859 0.734375 5.84375C0.855469 5.87891 1.03125 5.87891 1.12891 5.83984C1.23828 5.82813 1.3125 5.74219 1.33594 5.70312C1.35938 5.66016 1.40234 5.50781 1.33594 5.37109C1.26172 5.21875 0.921875 4.5 0.816406 4.27344C0.792969 4.22656 0.78125 4.17578 0.78125 4.12109C0.78125 3.98438 0.910156 3.93359 0.980469 3.93359C1.06641 3.93359 1.15625 4 1.15625 4.08203C1.15625 4.13281 1.12891 4.16406 1.08594 4.16406C0.988281 4.16406 0.996094 4.08203 1.01562 4.02734C0.953125 4.05469 0.917969 4.10156 0.929687 4.15625C0.894531 4.16016 0.863281 4.17578 0.832031 4.21094C0.855469 4.24219 0.886719 4.26172 0.929687 4.26562C0.910156 4.34375 0.964844 4.37891 1.01562 4.39844C1 4.33984 0.988281 4.27344 1.08594 4.27344C1.16016 4.27344 1.21484 4.26172 1.25 4.21484C1.25 4.27734 1.25781 4.52734 1.25781 4.52734C1.26172 4.62109 1.13281 4.61719 1.05078 4.58984C1.08203 4.69531 1.14453 4.75391 1.29297 4.74219C1.25781 4.75781 1.21875 4.78906 1.21875 4.85547C1.21875 4.94141 1.28906 5.03906 1.33594 5.06641L1.35938 4.14062Z" fill="#F5C933"/>
<path d="M1.35938 3.43752C1.35938 3.67189 1.14844 3.78908 0.984375 3.78908C0.761719 3.78908 0.644531 3.65627 0.644531 3.48439C0.644531 3.38674 0.664063 3.32424 0.707031 3.23049C0.707031 3.23049 1.07422 2.46877 1.21484 2.1758C1.23438 2.14064 1.23828 2.09768 1.23828 2.03518C1.23828 1.94143 1.14453 1.8633 1.05078 1.85939C0.964844 1.85549 0.867188 1.94143 0.867188 2.03518C0.867188 2.15236 0.925781 2.20314 0.988281 2.20314C1.06641 2.20314 1.09375 2.17189 1.09375 2.11721C1.09375 2.07814 1.07422 2.06252 1.05078 2.06252C0.984375 2.06252 1.00391 2.15236 1.00391 2.15236C0.972656 2.14455 0.945312 2.1133 0.960938 2.07033C0.9375 2.06643 0.914062 2.0508 0.898438 2.03127C0.914062 2.01564 0.9375 2.00002 0.960938 1.99611C0.945312 1.94533 0.964844 1.92189 1.01172 1.91018C1.00391 1.92971 1.00391 1.94924 1.00391 1.96486C1.07422 1.94533 1.17969 1.97658 1.17969 2.09768C1.17969 2.21877 1.09766 2.31643 0.941406 2.29299C0.976562 2.31252 0.996094 2.34768 1 2.38674C0.972656 2.37502 0.941406 2.37502 0.941406 2.37502C0.960938 2.40627 0.984375 2.43361 0.984375 2.49611C0.957031 2.48439 0.929687 2.45705 0.890625 2.47268C0.949219 2.58596 0.878906 2.74221 0.695312 2.78127C0.761719 2.70314 0.792969 2.62111 0.792969 2.53518C0.792969 2.26564 0.71875 2.21877 0.71875 2.03127C0.71875 1.95314 0.757812 1.86721 0.839844 1.80861V1.81252C0.785156 1.79689 0.753906 1.77346 0.734375 1.7383C0.855469 1.70314 1.03125 1.70314 1.12891 1.74221C1.23828 1.75393 1.3125 1.83986 1.33594 1.87893C1.35938 1.92189 1.40234 2.07424 1.33594 2.21096C1.26172 2.3633 0.921875 3.08205 0.816406 3.30861C0.792969 3.35549 0.78125 3.40627 0.78125 3.46096C0.78125 3.59768 0.910156 3.64846 0.980469 3.64846C1.06641 3.64846 1.15625 3.58205 1.15625 3.50002C1.15625 3.44924 1.12891 3.41799 1.08594 3.41799C0.988281 3.41799 0.996094 3.50002 1.01562 3.55471C0.953125 3.52736 0.917969 3.48049 0.929687 3.4258C0.894531 3.42189 0.863281 3.40627 0.832031 3.37111C0.855469 3.33986 0.886719 3.32033 0.929687 3.31643C0.910156 3.2383 0.964844 3.20314 1.01562 3.18361C1 3.24221 0.988281 3.30861 1.08594 3.30861C1.16016 3.30861 1.21484 3.32033 1.25 3.36721C1.25 3.30471 1.25781 3.05471 1.25781 3.05471C1.26172 2.96096 1.13281 2.96486 1.05078 2.99221C1.08203 2.88283 1.14453 2.82814 1.29297 2.83986C1.25781 2.82424 1.21875 2.79299 1.21875 2.72658C1.21875 2.64064 1.28906 2.54299 1.33594 2.51564L1.35938 3.43752Z" fill="#F5C933"/>
<path d="M1.31249 3.43752C1.31249 3.67189 1.52343 3.78908 1.68749 3.78908C1.91015 3.78908 2.02734 3.65627 2.02734 3.48439C2.02734 3.38674 2.00781 3.32424 1.96484 3.23049C1.96484 3.23049 1.59765 2.46877 1.45703 2.1758C1.43749 2.14064 1.43359 2.09768 1.43359 2.03518C1.43359 1.94143 1.52734 1.8633 1.62109 1.85939C1.70703 1.85549 1.80468 1.94143 1.80468 2.03518C1.80468 2.15236 1.74609 2.20314 1.68359 2.20314C1.60546 2.20314 1.57812 2.17189 1.57812 2.11721C1.57812 2.07814 1.59765 2.06252 1.62109 2.06252C1.68749 2.06252 1.66796 2.15236 1.66796 2.15236C1.69921 2.14455 1.72656 2.1133 1.71093 2.07033C1.73437 2.06643 1.75781 2.0508 1.77343 2.03127C1.75781 2.01564 1.73437 2.00002 1.71093 1.99611C1.72656 1.94533 1.70703 1.92189 1.66015 1.91018C1.66796 1.92971 1.66796 1.94924 1.66796 1.96486C1.59765 1.94533 1.49218 1.97658 1.49218 2.09768C1.49218 2.21877 1.57421 2.31643 1.73046 2.29299C1.69531 2.31252 1.67578 2.34768 1.67187 2.38674C1.69921 2.37502 1.73046 2.37502 1.73046 2.37502C1.71093 2.40627 1.68749 2.43361 1.68749 2.49611C1.71484 2.48439 1.74218 2.45705 1.78124 2.47268C1.72265 2.58596 1.79296 2.74221 1.97656 2.78127C1.91015 2.70314 1.8789 2.62111 1.8789 2.53518C1.8789 2.26564 1.95312 2.21877 1.95312 2.03127C1.95312 1.95314 1.91406 1.86721 1.83203 1.80861V1.81252C1.88671 1.79689 1.91796 1.77346 1.93749 1.7383C1.8164 1.70314 1.64062 1.70314 1.54296 1.74221C1.43359 1.75393 1.35937 1.83986 1.33593 1.87893C1.31249 1.92189 1.26953 2.07424 1.33593 2.21096C1.41015 2.3633 1.74999 3.08205 1.85546 3.30861C1.8789 3.35549 1.89062 3.40627 1.89062 3.46096C1.89062 3.59768 1.76171 3.64846 1.6914 3.64846C1.60546 3.64846 1.51562 3.58205 1.51562 3.50002C1.51562 3.44924 1.54296 3.41799 1.58593 3.41799C1.68359 3.41799 1.67578 3.50002 1.65624 3.55471C1.71874 3.52736 1.7539 3.48049 1.74218 3.4258C1.77734 3.42189 1.80859 3.40627 1.83984 3.37111C1.8164 3.33986 1.78515 3.32033 1.74218 3.31643C1.76171 3.2383 1.70703 3.20314 1.65624 3.18361C1.67187 3.24221 1.68359 3.30861 1.58593 3.30861C1.51171 3.30861 1.45703 3.32033 1.42187 3.36721C1.42187 3.30471 1.41406 3.05471 1.41406 3.05471C1.41015 2.96096 1.53906 2.96486 1.62109 2.99221C1.58984 2.88283 1.52734 2.82814 1.3789 2.83986C1.41406 2.82424 1.45312 2.79299 1.45312 2.72658C1.45312 2.64064 1.38281 2.54299 1.33593 2.51564L1.31249 3.43752Z" fill="#F5C933"/>
<path d="M1.35938 7.52736C1.35938 7.76174 1.14844 7.87893 0.984375 7.87893C0.761719 7.87893 0.644531 7.74611 0.644531 7.57424C0.644531 7.47658 0.664063 7.41408 0.707031 7.32033C0.707031 7.32033 1.07422 6.55861 1.21484 6.26564C1.23438 6.23049 1.23828 6.18752 1.23828 6.12502C1.23828 6.03127 1.14453 5.95314 1.05078 5.94924C0.964844 5.94533 0.867188 6.03127 0.867188 6.12502C0.867188 6.24221 0.925781 6.29299 0.988281 6.29299C1.06641 6.29299 1.09375 6.26174 1.09375 6.20705C1.09375 6.17189 1.07422 6.15236 1.05078 6.15236C0.984375 6.15236 1.00391 6.24221 1.00391 6.24221C0.972656 6.23439 0.945312 6.20314 0.960938 6.16018C0.9375 6.15627 0.914062 6.14064 0.898438 6.12111C0.914062 6.10549 0.9375 6.08986 0.960938 6.08596C0.945312 6.03518 0.964844 6.01174 1.01172 6.00002C1.00391 6.01955 1.00391 6.03908 1.00391 6.05471C1.07422 6.03518 1.17969 6.06643 1.17969 6.18752C1.17969 6.30861 1.09766 6.40627 0.941406 6.38283C0.976562 6.40236 0.996094 6.43752 1 6.47658C0.972656 6.46486 0.941406 6.46486 0.941406 6.46486C0.960938 6.49611 0.984375 6.52346 0.984375 6.58596C0.957031 6.57424 0.929687 6.54689 0.890625 6.56252C0.949219 6.6758 0.878906 6.83205 0.695312 6.87111C0.761719 6.79299 0.792969 6.71096 0.792969 6.62502C0.792969 6.35549 0.71875 6.30861 0.71875 6.12111C0.71875 6.04299 0.757812 5.95705 0.839844 5.89846V5.90236C0.785156 5.88674 0.753906 5.8633 0.734375 5.82814C0.855469 5.79299 1.03125 5.79299 1.12891 5.83205C1.23828 5.84377 1.3125 5.92971 1.33594 5.96877C1.35938 6.01174 1.40234 6.16408 1.33594 6.3008C1.26172 6.45314 0.921875 7.17189 0.816406 7.39846C0.792969 7.44533 0.78125 7.49611 0.78125 7.5508C0.78125 7.68752 0.910156 7.7383 0.980469 7.7383C1.06641 7.7383 1.15625 7.67189 1.15625 7.58986C1.15625 7.53908 1.12891 7.50783 1.08594 7.50783C0.988281 7.50783 0.996094 7.58986 1.01562 7.64455C0.953125 7.61721 0.917969 7.57033 0.929687 7.51564C0.894531 7.51174 0.863281 7.49611 0.832031 7.46096C0.855469 7.42971 0.886719 7.41018 0.929687 7.40627C0.910156 7.32814 0.964844 7.29299 1.01562 7.27346C1 7.33205 0.988281 7.39846 1.08594 7.39846C1.16016 7.39846 1.21484 7.41018 1.25 7.45705C1.25 7.39455 1.25781 7.14455 1.25781 7.14455C1.26172 7.0508 1.13281 7.05471 1.05078 7.08205C1.08203 6.97658 1.14453 6.91799 1.29297 6.92971C1.25781 6.91408 1.21875 6.88283 1.21875 6.81643C1.21875 6.73049 1.28906 6.63283 1.33594 6.60158L1.35938 7.52736Z" fill="#F5C933"/>
<path d="M1.31249 7.52736C1.31249 7.76174 1.52343 7.87893 1.68749 7.87893C1.91015 7.87893 2.02734 7.74611 2.02734 7.57424C2.02734 7.47658 2.00781 7.41408 1.96484 7.32033C1.96484 7.32033 1.59765 6.55861 1.45703 6.26564C1.43749 6.23049 1.43359 6.18752 1.43359 6.12502C1.43359 6.03127 1.52734 5.95314 1.62109 5.94924C1.70703 5.94533 1.80468 6.03127 1.80468 6.12502C1.80468 6.24221 1.74609 6.29299 1.68359 6.29299C1.60546 6.29299 1.57812 6.26174 1.57812 6.20705C1.57812 6.17189 1.59765 6.15236 1.62109 6.15236C1.68749 6.15236 1.66796 6.24221 1.66796 6.24221C1.69921 6.23439 1.72656 6.20314 1.71093 6.16018C1.73437 6.15627 1.75781 6.14064 1.77343 6.12111C1.75781 6.10549 1.73437 6.08986 1.71093 6.08596C1.72656 6.03518 1.70703 6.01174 1.66015 6.00002C1.66796 6.01955 1.66796 6.03908 1.66796 6.05471C1.59765 6.03518 1.49218 6.06643 1.49218 6.18752C1.49218 6.30861 1.57421 6.40627 1.73046 6.38283C1.69531 6.40236 1.67578 6.43752 1.67187 6.47658C1.69921 6.46486 1.73046 6.46486 1.73046 6.46486C1.71093 6.49611 1.68749 6.52346 1.68749 6.58596C1.71484 6.57424 1.74218 6.54689 1.78124 6.56252C1.72265 6.6758 1.79296 6.83205 1.97656 6.87111C1.91015 6.79299 1.8789 6.71096 1.8789 6.62502C1.8789 6.35549 1.95312 6.30861 1.95312 6.12111C1.95312 6.04299 1.91406 5.95705 1.83203 5.89846V5.90236C1.88671 5.88674 1.91796 5.8633 1.93749 5.82814C1.8164 5.79299 1.64062 5.79299 1.54296 5.83205C1.43359 5.84377 1.35937 5.92971 1.33593 5.96877C1.31249 6.01174 1.26953 6.16408 1.33593 6.3008C1.41015 6.45314 1.74999 7.17189 1.85546 7.39846C1.8789 7.44533 1.89062 7.49611 1.89062 7.5508C1.89062 7.68752 1.76171 7.7383 1.6914 7.7383C1.60546 7.7383 1.51562 7.67189 1.51562 7.58986C1.51562 7.53908 1.54296 7.50783 1.58593 7.50783C1.68359 7.50783 1.67578 7.58986 1.65624 7.64455C1.71874 7.61721 1.7539 7.57033 1.74218 7.51564C1.77734 7.51174 1.80859 7.49611 1.83984 7.46096C1.8164 7.42971 1.78515 7.41018 1.74218 7.40627C1.76171 7.32814 1.70703 7.29299 1.65624 7.27346C1.67187 7.33205 1.68359 7.39846 1.58593 7.39846C1.51171 7.39846 1.45703 7.41018 1.42187 7.45705C1.42187 7.39455 1.41406 7.14455 1.41406 7.14455C1.41015 7.0508 1.53906 7.05471 1.62109 7.08205C1.58984 6.97658 1.52734 6.91799 1.3789 6.92971C1.41406 6.91408 1.45312 6.88283 1.45312 6.81643C1.45312 6.73049 1.38281 6.63283 1.33593 6.60158L1.31249 7.52736Z" fill="#F5C933"/>
<path d="M1.33594 0.914063C1.33594 0.914063 1.44531 0.820312 1.48437 0.867187C1.54687 0.941406 1.29688 1.31641 1.29688 1.44922C1.29688 1.66406 1.44141 1.72266 1.62109 1.75391C1.74219 1.77344 1.9375 1.74609 1.9375 1.74609C1.90234 1.69531 1.875 1.68359 1.81641 1.67969C1.88672 1.64453 1.95703 1.56641 1.95703 1.44531C1.95703 1.25781 1.87891 1.18359 1.87891 0.972656C1.87891 0.855469 1.97266 0.707031 1.97266 0.707031C1.80469 0.722656 1.71875 0.878906 1.76953 1.00391C1.74219 1.00781 1.71875 1 1.69531 0.980469C1.68359 1.01562 1.70312 1.05469 1.73047 1.08984C1.71094 1.10156 1.69531 1.09375 1.66016 1.08594C1.66406 1.12109 1.68359 1.16016 1.73828 1.19531C1.58594 1.15625 1.49219 1.26172 1.49219 1.37109C1.49219 1.45312 1.55078 1.51562 1.60938 1.51562C1.62891 1.51562 1.65625 1.50781 1.67187 1.49609C1.68359 1.51953 1.67578 1.55078 1.66406 1.57422C1.70703 1.5625 1.73438 1.53906 1.71484 1.48828C1.74609 1.48438 1.77344 1.47266 1.78906 1.45312C1.77344 1.42969 1.74609 1.41797 1.71484 1.41797C1.73828 1.37109 1.71094 1.34375 1.67578 1.32031C1.67578 1.32031 1.69922 1.41797 1.63672 1.41797C1.60938 1.41797 1.58203 1.41016 1.58203 1.36719C1.58203 1.33203 1.61328 1.28125 1.6875 1.28516C1.75781 1.28906 1.81641 1.33594 1.81641 1.44922C1.81641 1.55469 1.73047 1.60937 1.61719 1.61328C1.51563 1.61719 1.4375 1.5625 1.4375 1.45703C1.4375 1.31641 1.64062 1 1.64062 0.875C1.64062 0.78125 1.55469 0.730469 1.47266 0.730469C1.36719 0.730469 1.27734 0.835938 1.27734 0.835938L1.33594 0.914063Z" fill="#F5C933"/>
<path d="M1.33594 0.914063C1.33594 0.914063 1.22656 0.820312 1.1875 0.867187C1.125 0.941406 1.375 1.31641 1.375 1.44922C1.375 1.66406 1.23047 1.72266 1.05078 1.75391C0.929688 1.77344 0.734375 1.74609 0.734375 1.74609C0.769531 1.69531 0.796875 1.68359 0.855469 1.67969C0.785156 1.64453 0.714844 1.56641 0.714844 1.44531C0.714844 1.25781 0.792969 1.18359 0.792969 0.972656C0.792969 0.855469 0.699219 0.707031 0.699219 0.707031C0.867188 0.722656 0.953125 0.878906 0.902344 1.00391C0.929688 1.00781 0.953125 1 0.976562 0.980469C0.988281 1.01562 0.96875 1.05469 0.941406 1.08984C0.960938 1.10156 0.976562 1.09375 1.01172 1.08594C1.00781 1.12109 0.988281 1.16016 0.933594 1.19531C1.08594 1.15625 1.17969 1.26172 1.17969 1.37109C1.17969 1.45312 1.12109 1.51562 1.0625 1.51562C1.04297 1.51562 1.01563 1.50781 1 1.49609C0.988281 1.51953 0.996094 1.55078 1.00781 1.57422C0.964844 1.5625 0.9375 1.53906 0.957031 1.48828C0.925781 1.48438 0.898438 1.47266 0.882813 1.45312C0.898438 1.42969 0.925781 1.41797 0.957031 1.41797C0.933594 1.37109 0.960938 1.34375 0.996094 1.32031C0.996094 1.32031 0.972656 1.41797 1.03516 1.41797C1.0625 1.41797 1.08984 1.41016 1.08984 1.36719C1.08984 1.33203 1.05859 1.28125 0.984375 1.28516C0.914063 1.28906 0.855469 1.33594 0.855469 1.44922C0.855469 1.55469 0.941406 1.60937 1.05469 1.61328C1.15625 1.61719 1.23438 1.5625 1.23438 1.45703C1.23438 1.31641 1.03125 1 1.03125 0.875C1.03125 0.78125 1.11719 0.730469 1.19922 0.730469C1.30469 0.730469 1.39453 0.835938 1.39453 0.835938L1.33594 0.914063Z" fill="#F5C933"/>
<path d="M1.1211 7.50776C1.1211 7.48823 1.07813 7.49995 1.04688 7.50776C1.01563 7.51557 0.996101 7.5312 1.00001 7.54682C1.00001 7.56635 1.03907 7.55463 1.07032 7.55073C1.10157 7.54292 1.1211 7.52729 1.1211 7.50776Z" fill="#50AEC4"/>
<path d="M1.01953 7.57031H1.00781L0.988278 7.54687C0.984372 7.52344 1.00781 7.50391 1.04297 7.49219C1.0664 7.48828 1.08593 7.48047 1.10156 7.48047H1.11328L1.13281 7.5C1.13281 7.52344 1.11328 7.54687 1.07422 7.55469C1.05078 7.56641 1.03515 7.57031 1.01953 7.57031Z" fill="#50AEC4"/>
<path d="M10.4414 7.92558C8.87501 7.92948 7.77344 6.67558 7.67579 5.42167C7.67579 5.42167 7.61329 5.39823 7.60547 5.45292C7.58594 5.58573 7.64063 5.99589 7.6211 5.96464C7.58204 5.91386 7.29688 5.14823 7.2461 5.23027C7.17579 5.34355 7.56641 6.21464 7.54297 6.23808C7.46485 6.33183 7.01563 5.38651 6.98047 5.45683C6.84376 5.72245 7.53516 6.57792 7.52735 6.61308C7.51172 6.72636 7.00391 6.15214 6.96094 6.21464C6.86329 6.35526 7.50782 6.85917 7.54297 6.89823C7.64063 7.01542 7.19141 6.69511 7.17579 6.80448C7.16407 6.89433 7.39454 7.07792 7.53126 7.15605C7.66797 7.23417 7.71485 7.21073 7.75391 7.27714C7.78516 7.32792 7.4961 7.24589 7.50391 7.30839C7.51954 7.43339 7.82032 7.40605 7.86719 7.46464C7.91407 7.51933 7.66016 7.47636 7.67188 7.52323C7.68751 7.60526 7.94532 7.61698 7.94922 7.65214C7.95313 7.6873 7.78907 7.66386 7.80079 7.73027C7.8086 7.78886 8.0586 7.77714 8.1211 7.8162C8.1836 7.85526 7.89844 7.82011 8.1211 7.93339C8.34376 8.04276 8.59766 8.16776 8.94532 8.23417C9.29297 8.30058 9.46876 8.22636 9.48047 8.20292C9.49219 8.17948 9.31641 8.22245 9.07032 8.17558C8.82422 8.13261 8.4961 7.97636 8.35938 7.89823C8.31641 7.8748 8.49219 7.82401 8.45313 7.77714C8.41797 7.73026 8.27735 7.78495 8.22266 7.71464C8.18751 7.67167 8.28907 7.67167 8.28516 7.64042C8.28126 7.61308 8.09376 7.57011 8.0586 7.52323C8.02344 7.47636 8.14454 7.48417 8.14844 7.44901C8.15235 7.42558 8.02735 7.38651 8.01954 7.35526C8.01172 7.32401 8.15626 7.33183 8.08985 7.29276C8.01563 7.2498 7.82032 7.19902 7.78126 7.1287C7.7461 7.05839 7.9336 7.14042 7.88282 7.07011C7.85157 7.02323 7.66797 6.94901 7.62891 6.83964C7.60157 6.76933 7.75782 6.83183 7.75782 6.78495C7.76173 6.71464 7.66797 6.75761 7.63672 6.55058C7.62501 6.48417 7.75782 6.52714 7.75782 6.52714L7.77735 6.49198C7.77735 6.49198 7.92969 6.57792 8.12891 6.80839C8.32813 7.03886 8.38282 7.25761 8.57032 7.41386C8.66016 7.48808 8.66016 7.38261 8.86329 7.51151C9.06641 7.63651 9.15235 7.72636 9.36329 7.90995C9.39454 7.93339 9.53126 7.88652 9.94141 7.96855C10.1602 8.01542 10.207 8.1287 10.207 8.1287C10.207 8.13261 10.3281 8.05448 10.3867 7.96464C10.4102 7.92948 10.4336 7.96464 10.4375 7.95683C10.4688 7.95292 10.4414 7.92558 10.4414 7.92558Z" fill="#F5C933"/>
<path d="M9.20312 8.27727C9.12109 8.27727 9.03125 8.26946 8.9375 8.24993C8.57812 8.17961 8.30859 8.0429 8.11328 7.94524C8.04297 7.91008 8.01953 7.88665 8.01953 7.86711C8.02344 7.84368 8.05469 7.83977 8.08594 7.83196C8.09766 7.82805 8.11328 7.82805 8.11719 7.82415C8.08594 7.81243 8.02344 7.80461 7.96484 7.7968C7.87109 7.78508 7.79297 7.77336 7.78516 7.7343V7.7304L7.79297 7.70305C7.80859 7.67961 7.85156 7.6718 7.88672 7.6679C7.90234 7.66399 7.93359 7.66008 7.9375 7.65618C7.93359 7.64836 7.88672 7.63665 7.85156 7.62883C7.77344 7.6093 7.67187 7.58586 7.66016 7.52727C7.67578 7.49211 7.71484 7.48821 7.77344 7.48821C7.80469 7.48821 7.85547 7.4843 7.85937 7.47649C7.83984 7.45305 7.78516 7.44524 7.72656 7.43352C7.62109 7.41399 7.5 7.39446 7.49219 7.30852C7.52344 7.24993 7.58203 7.26946 7.65234 7.27727C7.67969 7.28118 7.70312 7.28118 7.72266 7.28118C7.72266 7.24602 7.70312 7.23821 7.66016 7.22258C7.62891 7.21086 7.58594 7.19524 7.52734 7.16008C7.39844 7.08586 7.15234 6.89836 7.16406 6.7968C7.16406 6.78508 7.17187 6.76164 7.20703 6.76164C7.26172 6.76164 7.36719 6.81633 7.44922 6.8593C7.49219 6.88274 7.53906 6.90618 7.55078 6.90618C7.52734 6.89446 7.50391 6.87102 7.46484 6.84368C7.16797 6.58586 6.87109 6.31243 6.94531 6.20305C7.00391 6.19133 7.08984 6.26946 7.23047 6.39836C7.33594 6.49211 7.46484 6.61321 7.50391 6.61321C7.50391 6.60149 7.46484 6.53899 7.41797 6.47258C7.23437 6.20696 6.85156 5.65227 6.96094 5.44524C7.00781 5.43352 7.05859 5.52336 7.19531 5.75774C7.30469 5.94524 7.46875 6.22649 7.51953 6.22649C7.52344 6.21086 7.47656 6.08977 7.43359 5.96868C7.29297 5.59758 7.17969 5.28899 7.22656 5.21477C7.28906 5.19914 7.37891 5.38665 7.53516 5.75383C7.56641 5.83196 7.59766 5.90227 7.61328 5.93352C7.60547 5.90618 7.60156 5.85149 7.59766 5.80071C7.58594 5.67571 7.57422 5.51555 7.58594 5.44133C7.58984 5.41008 7.60937 5.39446 7.64062 5.39446C7.65625 5.39446 7.67187 5.39836 7.67187 5.40227C7.77734 6.64055 8.82812 7.90618 10.4258 7.90618C10.4453 7.91008 10.4609 7.92961 10.4609 7.94915V7.95305L10.4453 7.97649L10.4258 7.96477L10.4062 7.97258C10.3359 8.07024 10.2148 8.15227 10.2031 8.15227C10.1875 8.13274 10.1367 8.03118 9.93359 7.98821C9.70703 7.94133 9.56641 7.93743 9.48047 7.93743H9.40625C9.375 7.93743 9.35937 7.93743 9.34766 7.92571L9.22656 7.82024C9.09375 7.70696 9.00781 7.62883 8.85156 7.53118C8.75781 7.47258 8.70703 7.46477 8.67578 7.46477H8.63672C8.61328 7.46477 8.58984 7.46086 8.55859 7.43352C8.45312 7.34368 8.38672 7.23821 8.31641 7.12102C8.25781 7.02727 8.19922 6.92961 8.11328 6.82414C7.91797 6.59758 7.76562 6.51164 7.76172 6.51164V6.5429C7.74609 6.55071 7.70703 6.53508 7.67187 6.53508C7.65625 6.53508 7.64844 6.53899 7.64453 6.5429C7.66016 6.67961 7.69922 6.71086 7.72656 6.7304C7.74609 6.74602 7.76562 6.75774 7.76172 6.7929C7.76172 6.82415 7.72266 6.82414 7.70703 6.82414H7.66016C7.63672 6.82414 7.62891 6.82805 7.625 6.83196C7.64844 6.91008 7.73437 6.96868 7.79687 7.01165C7.83594 7.03508 7.86328 7.05461 7.875 7.07414L7.87891 7.07805L7.88281 7.1054C7.875 7.11711 7.85937 7.11711 7.84766 7.11711L7.78906 7.11321C7.79687 7.1718 7.89453 7.21086 7.97266 7.24211C8.01172 7.25774 8.05078 7.27336 8.07422 7.28508C8.08594 7.2929 8.10156 7.30071 8.09766 7.31633C8.09375 7.33196 8.07422 7.33586 8.04687 7.34368C8.03516 7.34758 8.01172 7.35149 8.00781 7.3554C8.01172 7.36321 8.04687 7.38665 8.07422 7.39836C8.11328 7.4218 8.14062 7.43352 8.13672 7.45305C8.13281 7.47258 8.10547 7.48039 8.08203 7.48821C8.06641 7.49211 8.04297 7.49993 8.04297 7.50774C8.0625 7.53899 8.12891 7.56633 8.17969 7.58586C8.24609 7.61321 8.27344 7.62493 8.27734 7.64055C8.27734 7.66008 8.25781 7.6679 8.23828 7.67571C8.22656 7.67961 8.21094 7.68743 8.20703 7.69524C8.23828 7.73821 8.28906 7.73821 8.33594 7.73821C8.37891 7.73821 8.42187 7.73821 8.44141 7.76555L8.44922 7.7929C8.44531 7.81633 8.41406 7.83977 8.38281 7.8593C8.36719 7.86711 8.34766 7.88274 8.34375 7.88665C8.46484 7.95696 8.79687 8.11711 9.05078 8.16399C9.13281 8.17961 9.21484 8.18743 9.30469 8.18743C9.33984 8.18743 9.37109 8.18743 9.39453 8.18743H9.43359C9.45312 8.18743 9.46484 8.18743 9.46875 8.19915C9.47266 8.23821 9.37891 8.27727 9.20312 8.27727ZM7.5625 7.30071C7.52734 7.30071 7.51953 7.30852 7.51562 7.30852C7.52344 7.38274 7.63672 7.40227 7.73047 7.4179C7.80078 7.42961 7.85156 7.43743 7.875 7.46477L7.87891 7.46868V7.49211C7.87109 7.51165 7.83203 7.51555 7.76953 7.51555C7.73828 7.51555 7.68359 7.51946 7.67969 7.52727C7.6875 7.57024 7.78516 7.59368 7.85547 7.6093C7.92187 7.62493 7.95312 7.63665 7.95703 7.65618C7.96094 7.68352 7.92578 7.68743 7.88672 7.69524C7.85547 7.69915 7.82031 7.70696 7.80859 7.71868C7.80859 7.75774 7.89844 7.76946 7.96484 7.77727C8.03125 7.78508 8.09375 7.7929 8.12109 7.81243L8.13281 7.83586C8.12891 7.85149 8.11328 7.85539 8.08203 7.8593C8.07031 7.86321 8.03906 7.86711 8.03516 7.87493C8.03516 7.87493 8.03516 7.89055 8.11328 7.92961C8.30859 8.02727 8.57422 8.16008 8.93359 8.23039C9.02734 8.24993 9.11328 8.25774 9.19531 8.25774C9.36719 8.25774 9.44922 8.21477 9.45703 8.20696L9.40234 8.21868C9.37891 8.21868 9.34766 8.21868 9.3125 8.21868C9.22266 8.21868 9.13672 8.21086 9.05469 8.19524C8.80078 8.14836 8.46484 7.9843 8.33984 7.91399C8.32812 7.87883 8.34766 7.86321 8.375 7.84758C8.39844 7.83196 8.42969 7.81243 8.43359 7.7968C8.41797 7.76946 8.38281 7.76946 8.34375 7.76946C8.29297 7.76946 8.23437 7.76946 8.19922 7.72649L8.19141 7.69524C8.19531 7.67571 8.21484 7.66789 8.23437 7.66008C8.24219 7.65618 8.25781 7.64836 8.26172 7.64446C8.25781 7.63664 8.21094 7.62102 8.17969 7.6093C8.12109 7.58586 8.05859 7.56243 8.03906 7.53508L8.03125 7.50383C8.03906 7.4843 8.0625 7.4804 8.08594 7.47258C8.09766 7.46868 8.125 7.46086 8.125 7.45696C8.12109 7.45305 8.09375 7.43743 8.07422 7.42571C8.03125 7.40227 8.00391 7.38664 8 7.36711C8.01172 7.33586 8.03125 7.33196 8.05469 7.32805C8.06641 7.32414 8.08203 7.32024 8.08594 7.31633C8.05078 7.30071 8.01172 7.28508 7.97266 7.26946C7.88672 7.2343 7.78516 7.19524 7.75781 7.14446L7.75391 7.13664V7.1093C7.76562 7.08586 7.79687 7.09368 7.82422 7.09758H7.85156C7.84766 7.07414 7.82031 7.05461 7.78516 7.03118C7.71484 6.9843 7.62891 6.92961 7.60547 6.8554C7.60156 6.83977 7.60156 6.82805 7.60547 6.82024C7.61719 6.80461 7.63672 6.80461 7.66016 6.80461H7.70703C7.71875 6.80461 7.73828 6.80461 7.73828 6.7968C7.73828 6.77336 7.73047 6.76946 7.71094 6.75383C7.67969 6.7304 7.63281 6.69524 7.61719 6.56633C7.61328 6.55071 7.61719 6.53899 7.625 6.53118C7.65234 6.50383 7.75 6.53118 7.75391 6.53118L7.75781 6.49993C7.78125 6.49993 7.93359 6.58586 8.12891 6.81243C8.21875 6.9179 8.27734 7.01555 8.33594 7.1093C8.40234 7.22258 8.46875 7.33196 8.57031 7.4179C8.59766 7.44133 8.61719 7.44524 8.63672 7.44524H8.67578C8.71484 7.44524 8.76562 7.45305 8.86328 7.51555C9.02344 7.61711 9.10937 7.69133 9.24219 7.80852L9.36328 7.91399C9.37109 7.91789 9.39453 7.91789 9.40625 7.91789H9.48047C9.56641 7.91789 9.71094 7.9218 9.9375 7.96868C10.1602 8.01555 10.2109 8.13274 10.2109 8.13665C10.2109 8.12493 10.3203 8.05071 10.3711 7.97258C10.3789 7.95696 10.3906 7.94915 10.4062 7.94915L10.4297 7.95696V7.9218L10.418 7.93352C8.8125 7.93352 7.75 6.66008 7.64844 5.4218C7.64453 5.4218 7.63672 5.4218 7.63281 5.4218C7.61328 5.4218 7.60547 5.42961 7.60156 5.44914C7.58984 5.52336 7.60547 5.68352 7.61328 5.80461C7.625 5.94133 7.625 5.96477 7.61719 5.97258C7.58594 5.95305 7.55469 5.88664 7.50781 5.76946C7.43359 5.59758 7.28125 5.23821 7.24219 5.2343C7.19922 5.30461 7.35937 5.71868 7.45312 5.96868C7.53906 6.19915 7.55078 6.2343 7.53906 6.24602L7.51562 6.25774C7.45703 6.25774 7.33984 6.06633 7.17187 5.77727C7.08984 5.63665 6.99609 5.47649 6.97266 5.46868C6.87891 5.66399 7.25391 6.20696 7.43359 6.46868C7.51172 6.58586 7.52734 6.6093 7.52734 6.62102V6.63274L7.5 6.64836C7.45703 6.64836 7.35937 6.56633 7.21094 6.42571C7.10937 6.33196 6.99219 6.22649 6.96094 6.22649C6.88672 6.33196 7.32812 6.71086 7.47266 6.83586C7.50781 6.86711 7.53516 6.89055 7.53906 6.89446C7.55078 6.91008 7.55859 6.9218 7.55469 6.92961C7.52344 6.93743 7.49219 6.9218 7.42969 6.89055C7.35156 6.85149 7.24609 6.7968 7.19531 6.7968C7.17578 6.7968 7.17578 6.80461 7.17187 6.80852C7.16016 6.88665 7.375 7.06243 7.52344 7.14836C7.58203 7.18352 7.62109 7.19524 7.65234 7.20696C7.69531 7.22258 7.72266 7.23039 7.74609 7.27336C7.73437 7.34368 7.68359 7.30852 7.63281 7.30461C7.62109 7.30071 7.58984 7.30071 7.5625 7.30071Z" fill="#F5C933"/>
<path d="M11.4961 8.39446C11.4375 8.38274 11.4453 8.42961 11.4453 8.42961C11.4492 8.48821 11.4102 8.5468 11.3633 8.55852C11.3281 8.56633 11.3438 8.59368 11.332 8.62102L11.1797 8.61321C10.9375 8.74602 10.6367 8.78899 10.2695 8.74993C10.2695 8.74993 10.1953 8.80852 10.125 8.86712C10.0547 8.92571 10.0117 8.94133 9.99609 8.98821C9.98047 9.03508 10.0313 9.06243 10.0938 9.06243C10.1563 9.06243 10.2383 9.00383 10.2383 9.00383C10.2383 9.00383 10.25 9.05071 10.3047 9.05852C10.3633 9.06243 10.4688 9.02337 10.4688 9.02337C10.4688 9.02337 10.5586 9.06243 10.625 9.05461C10.6914 9.0468 10.75 9.00383 10.75 9.00383C10.75 9.00383 10.7695 9.08196 10.8359 9.08586C10.9023 9.08977 11.0078 9.00383 11.0078 9.00383C11.0078 9.00383 11.0586 9.06243 11.1172 9.05461C11.1797 9.0468 11.2539 8.97649 11.2539 8.97649C11.2539 8.97649 11.3281 9.00774 11.4023 8.98821C11.4727 8.96868 11.543 8.89446 11.543 8.89446C11.543 8.89446 11.6055 8.94915 11.6641 8.92961C11.7227 8.91008 11.7617 8.83196 11.7617 8.83196C11.7617 8.83196 11.918 8.89446 12.0195 8.84368C12.0938 8.80852 12.0742 8.69524 12.0742 8.69524C12.0742 8.69524 12.5 8.75774 12.4805 8.4804C12.4766 8.44133 11.7969 8.44915 11.4961 8.39446Z" fill="#F5C933"/>
<path d="M10.8398 9.09766C10.7734 9.09375 10.75 9.03516 10.7422 9.01563C10.7344 9.03125 10.6875 9.0625 10.6289 9.07031C10.5469 9.06641 10.4727 9.03906 10.4688 9.03906C10.4727 9.04297 10.3789 9.07422 10.3203 9.07422C10.2617 9.07031 10.2383 9.03906 10.2305 9.01563C10.2266 9.03125 10.1563 9.07813 10.0977 9.07813C10.0469 9.07813 10.0078 9.0625 9.99219 9.03906C9.98047 9.02344 9.98047 9.00781 9.98438 8.98828C9.9961 8.95312 10.0195 8.93359 10.0547 8.91016C10.0742 8.89844 10.0938 8.88281 10.1172 8.86328C10.1836 8.80469 10.2617 8.74609 10.2617 8.74609C10.3555 8.75391 10.4375 8.75781 10.5156 8.75781C10.7695 8.75781 10.9883 8.70703 11.1719 8.60938L11.3281 8.61719C11.3203 8.58594 11.3242 8.56641 11.3555 8.55469C11.3984 8.54297 11.4336 8.48828 11.4297 8.4375C11.4297 8.4375 11.4258 8.41797 11.4375 8.40234C11.4453 8.39453 11.457 8.38672 11.4727 8.38672C11.6563 8.41797 11.9375 8.42969 12.1602 8.44141C12.4609 8.45312 12.4844 8.45703 12.4844 8.47656C12.4883 8.53906 12.4727 8.58594 12.4375 8.625C12.3711 8.69531 12.25 8.71094 12.1602 8.71094C12.1133 8.71094 12.0781 8.70703 12.0664 8.70703C12.0781 8.71875 12.0898 8.82031 12.0156 8.85547C11.9336 8.89453 11.7734 8.85156 11.75 8.84375C11.7539 8.85156 11.7188 8.92578 11.6602 8.94141C11.6055 8.95703 11.5391 8.91406 11.5273 8.90625C11.5313 8.91797 11.4648 8.98047 11.3945 9.00391C11.332 9.02344 11.2461 8.99609 11.2383 8.99219C11.2422 8.99609 11.168 9.06641 11.1055 9.07422C11.0391 9.07422 10.9961 9.03125 10.9883 9.02344C11.0039 9.01953 10.9102 9.09766 10.8398 9.09766ZM10.7461 8.99609C10.7656 9.00391 10.7813 9.07031 10.8359 9.07422L10.8398 9.08594V9.07422C10.9023 9.07422 11 8.99219 11 8.99219C11.0156 8.99219 11.0547 9.03906 11.1055 9.03906C11.1719 9.03125 11.2461 8.96094 11.2461 8.96094C11.2578 8.96094 11.3008 8.97656 11.3516 8.97656C11.3711 8.97656 11.3867 8.97266 11.4023 8.96875C11.4688 8.94922 11.5352 8.87891 11.5391 8.875C11.5469 8.87891 11.5977 8.91016 11.6445 8.91016C11.7188 8.89062 11.7578 8.8125 11.7578 8.8125C11.7734 8.80469 11.8516 8.83594 11.9297 8.83594C11.9648 8.83594 11.9961 8.82812 12.0195 8.81641C12.082 8.78516 12.0664 8.68359 12.0664 8.67969C12.0781 8.66406 12.1211 8.67188 12.1719 8.67188C12.2578 8.67188 12.3711 8.66016 12.4297 8.59375C12.4609 8.55859 12.4766 8.51562 12.4727 8.46094C12.4609 8.45703 12.3125 8.45312 12.1719 8.44531C11.9453 8.4375 11.668 8.42578 11.5 8.39453L11.4688 8.39844C11.4688 8.47656 11.4258 8.54297 11.3711 8.55859C11.3555 8.5625 11.3555 8.56641 11.3555 8.58203C11.3555 8.58984 11.3555 8.60156 11.3477 8.61328H11.1836C10.9492 8.74219 10.6406 8.78906 10.2734 8.75C10.2734 8.75391 10.2031 8.80859 10.1367 8.86328C10.1133 8.88281 10.0898 8.89844 10.0742 8.91406C10.0391 8.9375 10.0195 8.95313 10.0117 8.98047C10.0078 8.99219 10.0078 9.00391 10.0156 9.01172C10.0273 9.02734 10.0586 9.03906 10.0977 9.04297C10.1602 9.04297 10.2344 8.98828 10.2344 8.98828C10.2539 8.99609 10.2617 9.03516 10.3086 9.03906C10.375 9.03906 10.4648 9.00781 10.4648 9.00391C10.4727 9.00391 10.543 9.03516 10.6055 9.03516C10.6914 9.03516 10.7461 8.99609 10.7461 8.99609Z" fill="#F5C933"/>
<path d="M10.5938 8.09788C10.5938 8.09788 10.7148 8.05101 10.9336 8.00413C11.3438 7.91819 11.4844 7.94554 11.5156 7.9221C11.8398 7.56272 12.0781 7.53148 12.3164 7.43773C12.5039 7.28148 12.5664 7.05491 12.7656 6.82444C12.9648 6.59397 13.082 6.57444 13.082 6.57444L13.1094 6.62522C13.1094 6.62522 13.2148 6.54319 13.2109 6.61351C13.2031 6.71507 13.1172 6.81272 13.1211 6.88694C13.125 6.93382 13.2656 6.86741 13.2539 6.91038C13.2188 7.01585 13.1055 7.08226 13.0742 7.12913C13.0234 7.19554 13.2031 7.10569 13.168 7.17601C13.1328 7.24632 12.9492 7.31663 12.8789 7.36351C12.8359 7.39085 12.9258 7.39866 12.918 7.42991C12.9102 7.46116 12.7227 7.53148 12.7227 7.55491C12.7266 7.58616 12.7734 7.59007 12.75 7.61351C12.7109 7.65648 12.5547 7.66429 12.5547 7.68772C12.5508 7.71507 12.5859 7.74241 12.5508 7.78538C12.4961 7.85179 12.4531 7.78538 12.4297 7.84007C12.418 7.87132 12.5195 7.93773 12.4492 7.94944C12.3555 7.96507 12.2852 8.00804 12.2031 8.05882C12.1719 8.07835 12.0352 8.10179 11.9531 8.12523C11.9023 8.13694 11.6094 8.17601 11.6211 8.19944C11.6328 8.22288 11.8164 8.21897 12.2031 8.15257C12.3711 8.12522 12.4688 8.10179 12.7305 8.01976C13.0273 7.92601 12.6523 7.91819 12.7148 7.87913C12.7773 7.84007 13.0352 7.8596 13.0469 7.80101C13.0586 7.7346 12.9023 7.75413 12.9063 7.71897C12.9102 7.68382 13.2227 7.68382 13.2383 7.60179C13.25 7.55491 13.0586 7.59007 13.1055 7.53147C13.1523 7.47679 13.3984 7.46116 13.4063 7.35569C13.4102 7.29319 13.2031 7.36741 13.2305 7.31663C13.2422 7.2971 13.3242 7.27366 13.4102 7.21507C13.5391 7.12522 13.7461 6.96898 13.7344 6.87523C13.7188 6.76585 13.3047 7.13304 13.3398 6.99241C13.3516 6.94163 14.0195 6.41429 13.9102 6.28538C13.8359 6.19944 13.3594 6.76585 13.3438 6.65257C13.3398 6.61741 14.0859 5.77366 13.9492 5.50804C13.9141 5.43772 13.3516 6.51585 13.2734 6.4221C13.25 6.39476 13.7539 5.3596 13.6719 5.25413C13.6328 5.20335 13.5547 5.37522 13.4688 5.56663C13.3828 5.75804 13.2891 5.96898 13.2695 5.99632C13.25 6.02366 13.293 5.59007 13.2734 5.45726C13.2656 5.40257 13.2031 5.42601 13.2031 5.42601C13.1172 6.77757 11.8164 7.78148 10.7813 7.92991C10.5117 7.96898 10.4258 8.09398 10.1328 8.26194C10.0352 8.31663 9.88282 8.34398 9.75001 8.41819C9.61719 8.49241 9.52344 8.60179 9.48047 8.6721C9.46094 8.70726 9.48829 8.80491 9.51563 8.81663C9.54297 8.82835 9.54297 8.74241 9.57422 8.73069C9.60547 8.71507 9.60547 8.76194 9.64063 8.75804C9.67579 8.75804 9.71876 8.72288 9.71876 8.72288C9.71876 8.72288 10.4492 8.72288 10.7617 8.71116C10.8164 8.71116 10.9102 8.68772 10.9492 8.64476C10.9375 8.6096 10.8516 8.62913 10.8008 8.63304C10.5781 8.61741 10.293 8.63304 10.0859 8.61741C10.0859 8.61741 10.0508 8.61351 10.0547 8.58226C10.0547 8.56663 10.1875 8.42601 10.1875 8.42601H10.0859C10.0859 8.42601 10.0234 8.46116 9.99219 8.46507C9.96094 8.46897 9.94922 8.44944 9.96094 8.43773C10.125 8.30882 10.5938 8.09788 10.5938 8.09788Z" fill="#F5C933"/>
<path d="M9.53126 8.82031H9.52344C9.50001 8.8125 9.48829 8.77344 9.48438 8.75781C9.47266 8.72656 9.46876 8.68359 9.48438 8.66016C9.53516 8.58203 9.63282 8.47266 9.75782 8.40234C9.82813 8.36328 9.90235 8.33594 9.97657 8.3125C10.0391 8.29297 10.0977 8.27344 10.1406 8.24609C10.2344 8.19141 10.3086 8.14453 10.3711 8.10156C10.5078 8.00781 10.6055 7.94141 10.793 7.91406C11.8906 7.75781 13.1211 6.71875 13.2031 5.42187C13.2266 5.39453 13.2891 5.40625 13.2969 5.45312C13.3086 5.52734 13.3008 5.68359 13.293 5.8125C13.2891 5.89453 13.2852 5.97656 13.2891 5.98828C13.2891 5.96484 13.3672 5.78906 13.4414 5.62109L13.4688 5.55859C13.5703 5.33594 13.6211 5.23047 13.668 5.23047H13.6719L13.6914 5.24219C13.7422 5.3125 13.5938 5.67969 13.4102 6.12109C13.3516 6.26172 13.293 6.39844 13.293 6.41406C13.3477 6.41016 13.5469 6.09375 13.6914 5.85938C13.8594 5.58984 13.9258 5.48828 13.9531 5.48828C14.0781 5.70703 13.6602 6.25 13.4609 6.51172C13.4102 6.57812 13.3672 6.63672 13.3633 6.64844C13.3984 6.64062 13.5 6.5625 13.5859 6.48047C13.707 6.37109 13.832 6.25781 13.8945 6.25781H13.8984L13.9219 6.26953C14 6.36328 13.7539 6.60547 13.4922 6.84766C13.4258 6.91016 13.3594 6.97266 13.3555 6.98437C13.3867 7.00391 13.4531 6.96094 13.5156 6.92578C13.6328 6.85547 13.7422 6.80469 13.75 6.86328C13.7578 6.9375 13.6484 7.05469 13.418 7.21094C13.375 7.24219 13.332 7.26172 13.2969 7.27734C13.2734 7.28906 13.2461 7.30078 13.2422 7.30859C13.2695 7.30859 13.2852 7.30859 13.3008 7.30859C13.3516 7.30469 13.3945 7.30078 13.4102 7.32031L13.418 7.34375C13.4141 7.41797 13.3125 7.44922 13.2266 7.47656C13.1758 7.49219 13.1289 7.50781 13.1133 7.52734C13.1133 7.54297 13.1484 7.54687 13.168 7.54687C13.2031 7.55078 13.2344 7.55469 13.2461 7.57031C13.2383 7.64844 13.1211 7.66797 13.0195 7.68359C12.9766 7.69141 12.9219 7.69922 12.918 7.70703C12.9219 7.71094 12.9492 7.71484 12.9648 7.71875C13.0078 7.72656 13.0664 7.73828 13.0586 7.78906C13.0508 7.83203 12.9688 7.83984 12.875 7.84766C12.8125 7.85547 12.7461 7.85937 12.7227 7.875C12.7266 7.875 12.7539 7.88672 12.7734 7.89063C12.8203 7.90234 12.8633 7.91797 12.8633 7.94531C12.8633 7.96484 12.8477 7.98437 12.7383 8.01953C12.4727 8.10156 12.3789 8.125 12.2109 8.15234C11.9102 8.20312 11.7656 8.21094 11.707 8.21094C11.6367 8.21094 11.625 8.20312 11.6172 8.19141C11.625 8.16016 11.6758 8.14844 11.8555 8.12109C11.9023 8.11328 11.9414 8.10938 11.957 8.10156C11.9805 8.09375 12.0117 8.08984 12.043 8.08203C12.1094 8.06641 12.1797 8.05078 12.1992 8.03906C12.2773 7.98828 12.3477 7.94922 12.4492 7.92969C12.4649 7.91797 12.4531 7.89844 12.4453 7.88672C12.4297 7.86719 12.4141 7.84375 12.4219 7.82422C12.4297 7.80078 12.4453 7.79297 12.4648 7.79297L12.4922 7.80469V7.79297C12.5078 7.79297 12.5234 7.78906 12.543 7.76562C12.5625 7.74219 12.5547 7.72656 12.5508 7.70703C12.5469 7.69531 12.543 7.68359 12.543 7.67188C12.543 7.65234 12.5742 7.64453 12.6289 7.63281C12.6719 7.62109 12.7266 7.60937 12.7461 7.58984C12.7305 7.57031 12.7188 7.55859 12.7148 7.53906C12.7109 7.51953 12.7344 7.50781 12.8086 7.46875C12.8438 7.44922 12.9023 7.42187 12.9063 7.41016C12.9063 7.40625 12.8945 7.39844 12.8828 7.39062C12.8672 7.38281 12.8555 7.375 12.8555 7.36328V7.35547L12.8711 7.33594C12.8906 7.32422 12.9219 7.30859 12.957 7.28906C13.0352 7.25 13.1328 7.19922 13.1563 7.15234C13.1406 7.14062 13.125 7.14453 13.1133 7.14453C13.1016 7.14844 13.0859 7.14844 13.0781 7.14844L13.0547 7.13672C13.0508 7.125 13.0547 7.11328 13.0625 7.10156C13.0742 7.08594 13.0938 7.07031 13.1133 7.05078C13.1602 7.00781 13.2188 6.95703 13.2422 6.88672C13.2266 6.88672 13.2109 6.89062 13.1992 6.89062C13.1445 6.89844 13.1094 6.88672 13.1094 6.86719C13.1094 6.82812 13.1289 6.78516 13.1484 6.73828C13.1719 6.69141 13.1914 6.64062 13.1992 6.59375C13.1719 6.57812 13.1367 6.60156 13.1172 6.61719L13.0742 6.5625C13.0742 6.57031 12.9609 6.59766 12.7773 6.8125C12.6875 6.91406 12.6289 7.01563 12.5703 7.10938C12.5 7.22656 12.4336 7.33594 12.3281 7.42578C12.2813 7.44531 12.2422 7.45703 12.1992 7.47266C12 7.54297 11.7969 7.61328 11.5313 7.90625C11.5156 7.91797 11.4883 7.92188 11.4297 7.92578C11.3398 7.93359 11.1953 7.94141 10.9453 7.99219C10.7305 8.03516 10.6055 8.08203 10.6055 8.08594C10.6016 8.08594 10.1367 8.29688 9.98047 8.41406C10.0273 8.41406 10.0742 8.39062 10.0898 8.38281H10.1992C10.1484 8.46875 10.082 8.53906 10.0781 8.55078L10.0977 8.58203V8.57031C10.3047 8.58203 10.5938 8.57031 10.8125 8.58594L10.8477 8.58203C10.8945 8.57812 10.9531 8.55859 10.9688 8.60547C10.9219 8.66406 10.8242 8.6875 10.7695 8.6875C10.4609 8.69531 9.7461 8.69922 9.72657 8.69922C9.73047 8.69922 9.68751 8.73437 9.64844 8.73437C9.62501 8.73437 9.61329 8.72266 9.60547 8.71094C9.57813 8.70703 9.57032 8.73047 9.56251 8.74609C9.55469 8.79688 9.55079 8.82031 9.53126 8.82031ZM13.2344 5.42578C13.2227 5.42578 13.2109 5.42969 13.2109 5.42969C13.1367 6.72656 11.8945 7.77344 10.7891 7.93359C10.6094 7.96094 10.5117 8.02344 10.3789 8.11719C10.3125 8.16016 10.2422 8.21094 10.1445 8.26562C10.0977 8.29297 10.0391 8.3125 9.97657 8.33203C9.90626 8.35547 9.83204 8.38281 9.76172 8.41797C9.64063 8.48438 9.54688 8.58984 9.4961 8.66797C9.48829 8.67969 9.48829 8.71484 9.50001 8.74609C9.50782 8.77344 9.51954 8.78906 9.52735 8.79297C9.53126 8.78906 9.53516 8.77344 9.53907 8.76172C9.54688 8.73828 9.55469 8.71484 9.57422 8.70312C9.60547 8.69922 9.61329 8.70703 9.6211 8.71484C9.62891 8.72266 9.63282 8.73047 9.64454 8.73047C9.67969 8.73047 9.71485 8.69531 9.71876 8.69531C9.72657 8.69141 10.457 8.69141 10.7695 8.68359C10.8203 8.68359 10.9141 8.66016 10.9492 8.62109C10.9414 8.625 10.9297 8.62109 10.9063 8.62109C10.8906 8.62109 10.8672 8.625 10.8516 8.625L10.8125 8.62891C10.5898 8.61328 10.3008 8.62891 10.0938 8.61328C10.0898 8.61328 10.0742 8.61328 10.0625 8.59766C10.0547 8.58984 10.0508 8.57812 10.0547 8.56641C10.0547 8.55469 10.1016 8.5 10.1875 8.40625L10.0938 8.42578C10.0977 8.42578 10.0352 8.46094 10 8.46484C9.97266 8.46875 9.95704 8.45703 9.95313 8.44531L9.94922 8.4375L9.96094 8.41797C10.1172 8.29688 10.5703 8.09375 10.5898 8.08594C10.5898 8.08594 10.7148 8.03906 10.9336 7.99219C11.1836 7.94141 11.332 7.92969 11.4219 7.92578C11.4688 7.92188 11.5 7.92187 11.5078 7.91406C11.7773 7.61719 11.9844 7.54297 12.1836 7.47266C12.2266 7.45703 12.2656 7.44531 12.3086 7.42578C12.4063 7.33984 12.4727 7.23437 12.543 7.11719C12.6016 7.01953 12.6602 6.91797 12.75 6.81641C12.9492 6.58594 13.0664 6.5625 13.0742 6.5625L13.1133 6.61719C13.1094 6.60547 13.1563 6.57422 13.1875 6.57422L13.2109 6.58203C13.2188 6.58984 13.2188 6.59766 13.2188 6.61328C13.2148 6.66797 13.1875 6.71875 13.168 6.76562C13.1484 6.80859 13.1289 6.85156 13.1289 6.88281C13.1602 6.89062 13.1758 6.88672 13.1914 6.88281C13.207 6.87891 13.2227 6.87891 13.2344 6.87891L13.2617 6.88672C13.2383 6.98437 13.1758 7.03906 13.1289 7.08203C13.1094 7.10156 13.0898 7.11719 13.082 7.12891C13.0859 7.13672 13.0977 7.13672 13.1094 7.13281C13.125 7.12891 13.1367 7.12891 13.1484 7.12891H13.1563L13.1797 7.14062C13.1875 7.15234 13.1797 7.16797 13.1758 7.17187C13.1484 7.22656 13.0508 7.27344 12.9648 7.31641C12.9336 7.33203 12.9023 7.34766 12.8828 7.36328C12.9102 7.38672 12.9336 7.39844 12.9258 7.42188C12.9219 7.44141 12.8867 7.46094 12.8164 7.49609C12.7852 7.51172 12.7383 7.53516 12.7344 7.54297C12.7344 7.55078 12.7422 7.55469 12.7539 7.5625L12.7734 7.58594C12.7422 7.63281 12.6875 7.64453 12.6367 7.65625C12.6094 7.66406 12.5742 7.67188 12.5703 7.67578C12.582 7.71875 12.5938 7.74609 12.5664 7.77734C12.5391 7.80859 12.5156 7.81641 12.4961 7.81641H12.4688C12.4609 7.81641 12.4531 7.81641 12.4492 7.83203C12.4453 7.83984 12.4609 7.85547 12.4688 7.87109C12.4844 7.89063 12.5 7.91016 12.4922 7.92969C12.4883 7.94141 12.4766 7.94531 12.4609 7.94922C12.3672 7.96875 12.2969 8.00781 12.2188 8.05469C12.1953 8.07031 12.125 8.08594 12.0547 8.10156C12.0234 8.10938 11.9922 8.11719 11.9688 8.12109C11.9531 8.125 11.9141 8.13281 11.8672 8.14062C11.8047 8.15234 11.6914 8.16797 11.6563 8.18359C11.6836 8.18359 11.7578 8.20703 12.2148 8.125C12.3828 8.09766 12.4766 8.07422 12.7383 7.99219C12.8477 7.95703 12.8477 7.94141 12.8477 7.94141C12.8477 7.92969 12.7969 7.91797 12.7773 7.91016C12.7344 7.89844 12.7109 7.89062 12.7109 7.875V7.86719L12.7227 7.85156C12.7539 7.83203 12.8164 7.82422 12.8867 7.82031C12.9492 7.8125 13.0469 7.80469 13.0508 7.78125C13.0547 7.75781 13.0234 7.74609 12.9766 7.73828C12.9414 7.73047 12.9102 7.72656 12.9102 7.69922C12.9141 7.67578 12.9453 7.67188 13.0313 7.65625C13.1133 7.64453 13.2344 7.625 13.2422 7.58203C13.2344 7.57031 13.2031 7.57031 13.1797 7.56641C13.1445 7.5625 13.1094 7.55859 13.1016 7.53906L13.0977 7.53125L13.1094 7.50781C13.1289 7.48437 13.1758 7.46875 13.2344 7.44922C13.3125 7.42578 13.4063 7.39453 13.4102 7.33594C13.4023 7.32031 13.3633 7.32031 13.3164 7.32422C13.2813 7.32813 13.2461 7.33594 13.2344 7.31641C13.2422 7.27734 13.2656 7.26953 13.3008 7.25C13.332 7.23437 13.375 7.21484 13.418 7.18359C13.707 6.98047 13.7422 6.89063 13.7383 6.85547C13.6875 6.84766 13.6094 6.89063 13.5391 6.93359C13.4648 6.97656 13.4023 7.01562 13.3672 7.01562L13.3438 7.00391C13.3359 6.99609 13.3359 6.98438 13.3398 6.96875C13.3438 6.95312 13.3789 6.91797 13.4844 6.82031C13.6602 6.65625 13.9844 6.35547 13.9141 6.27344C13.8516 6.27344 13.7148 6.38672 13.6094 6.48438C13.4883 6.59375 13.4141 6.66016 13.375 6.66016H13.3633L13.3477 6.63672C13.3477 6.625 13.3633 6.60156 13.4492 6.48438C13.6445 6.22656 14.0547 5.6875 13.9531 5.49219C13.9336 5.50391 13.8164 5.69141 13.7148 5.85547C13.5039 6.19531 13.3633 6.41797 13.3008 6.41797C13.2695 6.39453 13.2773 6.37109 13.3945 6.09375C13.5195 5.79688 13.7266 5.30078 13.6797 5.23828C13.6406 5.23437 13.5586 5.41797 13.4961 5.55078L13.4688 5.61328C13.3906 5.78906 13.3125 5.95703 13.2969 5.98437C13.2695 5.97656 13.2695 5.95312 13.2773 5.79297C13.2852 5.66797 13.2891 5.50781 13.2813 5.4375C13.2656 5.4375 13.2539 5.42578 13.2344 5.42578Z" fill="#F5C933"/>
<path d="M9.86719 8.5432C9.86719 8.52758 9.83203 8.53539 9.80469 8.5432C9.77734 8.55101 9.76562 8.56273 9.76562 8.57836C9.76562 8.59398 9.80078 8.58617 9.82422 8.58226C9.85156 8.57054 9.87109 8.55883 9.86719 8.5432Z" fill="#50AEC4"/>
<path d="M9.78516 8.59766H9.77344L9.75391 8.57812C9.75391 8.55469 9.76953 8.53906 9.80078 8.53125C9.82422 8.52734 9.83594 8.52344 9.84766 8.52344H9.85937L9.875 8.54297C9.875 8.56641 9.85547 8.58203 9.82422 8.58984C9.8125 8.59375 9.79688 8.59766 9.78516 8.59766Z" fill="#50AEC4"/>
<path d="M10.8047 3.24219C10.8945 3.25781 10.9375 3.21094 10.9492 3.14453C10.9687 3.05469 10.9297 2.61328 10.9297 2.61328C10.9297 2.61328 10.7266 3.00781 10.707 3.09766C10.6953 3.16016 10.7148 3.22656 10.8047 3.24219Z" fill="#F5C933"/>
<path d="M11.125 3.33984C11.207 3.375 11.2617 3.33594 11.2851 3.27344C11.3203 3.19141 11.3711 2.75 11.3711 2.75C11.3711 2.75 11.0937 3.09766 11.0586 3.17969C11.0312 3.23828 11.043 3.30469 11.125 3.33984Z" fill="#F5C933"/>
<path d="M11.4219 3.5C11.4961 3.55078 11.5547 3.51953 11.5938 3.46484C11.6445 3.39062 11.7773 2.96484 11.7773 2.96484C11.7773 2.96484 11.4375 3.25 11.3867 3.32812C11.3516 3.38281 11.3477 3.44922 11.4219 3.5Z" fill="#F5C933"/>
<path d="M11.6797 3.71094C11.7422 3.77344 11.8086 3.75781 11.8555 3.71094C11.918 3.64844 12.1328 3.25781 12.1328 3.25781C12.1328 3.25781 11.7422 3.47266 11.6797 3.53516C11.6328 3.58203 11.6172 3.64844 11.6797 3.71094Z" fill="#F5C933"/>
<path d="M11.8945 3.97266C11.9453 4.04687 12.0117 4.04297 12.0664 4.00781C12.1406 3.95703 12.4258 3.61719 12.4258 3.61719C12.4258 3.61719 12.0039 3.75391 11.9258 3.80078C11.875 3.83594 11.8438 3.89844 11.8945 3.97266Z" fill="#F5C933"/>
<path d="M12.0547 4.26953C12.0898 4.35156 12.1562 4.36328 12.2187 4.33594C12.3008 4.30078 12.6484 4.02344 12.6484 4.02344C12.6484 4.02344 12.207 4.07422 12.125 4.10547C12.0586 4.13281 12.0195 4.18359 12.0547 4.26953Z" fill="#F5C933"/>
<path d="M12.1523 4.58994C12.1719 4.67588 12.2344 4.69932 12.2969 4.6876C12.3828 4.66807 12.7813 4.46494 12.7813 4.46494C12.7813 4.46494 12.3398 4.42588 12.25 4.44541C12.1836 4.45713 12.1328 4.5001 12.1523 4.58994Z" fill="#F5C933"/>
<path d="M12.1836 4.92578C12.1836 5.01562 12.2422 5.05078 12.3086 5.05078C12.3984 5.05078 12.8242 4.92578 12.8242 4.92578C12.8242 4.92578 12.3984 4.80078 12.3086 4.80078C12.2422 4.80078 12.1836 4.83594 12.1836 4.92578Z" fill="#F5C933"/>
<path d="M12.1523 5.2577C12.1367 5.34754 12.1836 5.39051 12.25 5.40223C12.3359 5.42176 12.7812 5.3827 12.7812 5.3827C12.7812 5.3827 12.3867 5.17957 12.2969 5.16004C12.2305 5.14832 12.168 5.17176 12.1523 5.2577Z" fill="#F5C933"/>
<path d="M12.0547 5.5822C12.0195 5.66423 12.0586 5.71891 12.1211 5.74235C12.2031 5.77751 12.6445 5.82438 12.6445 5.82438C12.6445 5.82438 12.2969 5.54704 12.2148 5.51188C12.1523 5.48845 12.0859 5.49626 12.0547 5.5822Z" fill="#F5C933"/>
<path d="M11.8945 5.87488C11.8437 5.9491 11.875 6.00769 11.9297 6.04675C12.0039 6.09753 12.4297 6.23035 12.4297 6.23035C12.4297 6.23035 12.1445 5.8905 12.0703 5.83972C12.0117 5.80457 11.9453 5.80066 11.8945 5.87488Z" fill="#F5C933"/>
<path d="M11.6797 6.13693C11.6172 6.19943 11.6328 6.26583 11.6797 6.31271C11.7422 6.37521 12.1328 6.59005 12.1328 6.59005C12.1328 6.59005 11.918 6.19943 11.8555 6.13693C11.8086 6.09005 11.7461 6.07443 11.6797 6.13693Z" fill="#F5C933"/>
<path d="M11.4219 6.35137C11.3477 6.40215 11.3516 6.46856 11.3867 6.52324C11.4375 6.59746 11.7773 6.88652 11.7773 6.88652C11.7773 6.88652 11.6406 6.46074 11.5938 6.38652C11.5547 6.32793 11.4961 6.30059 11.4219 6.35137Z" fill="#F5C933"/>
<path d="M11.125 6.50775C11.043 6.54291 11.0312 6.60932 11.0586 6.67182C11.0937 6.75385 11.3711 7.1015 11.3711 7.1015C11.3711 7.1015 11.3203 6.6601 11.2851 6.57807C11.2617 6.51557 11.207 6.4726 11.125 6.50775Z" fill="#F5C933"/>
<path d="M9.51563 6.35137C9.44141 6.30059 9.38281 6.33184 9.34375 6.38653C9.29297 6.46075 9.16016 6.88653 9.16016 6.88653C9.16016 6.88653 9.5 6.60137 9.55078 6.52325C9.58594 6.46466 9.58984 6.39825 9.51563 6.35137Z" fill="#F5C933"/>
<path d="M9.25781 6.13693C9.19531 6.07443 9.12891 6.09005 9.08203 6.13693C9.01953 6.19943 8.80469 6.59005 8.80469 6.59005C8.80469 6.59005 9.19531 6.37521 9.25781 6.31271C9.30469 6.26583 9.32031 6.19943 9.25781 6.13693Z" fill="#F5C933"/>
<path d="M9.04297 5.87488C8.99219 5.80066 8.92578 5.80457 8.87109 5.83972C8.79688 5.8905 8.51172 6.23035 8.51172 6.23035C8.51172 6.23035 8.93359 6.09363 9.01172 6.04675C9.0625 6.0116 9.09375 5.953 9.04297 5.87488Z" fill="#F5C933"/>
<path d="M8.88281 5.58209C8.84766 5.50005 8.78125 5.48833 8.72266 5.51568C8.64062 5.55083 8.29297 5.82818 8.29297 5.82818C8.29297 5.82818 8.73437 5.7774 8.81641 5.74615C8.87891 5.7149 8.91797 5.66412 8.88281 5.58209Z" fill="#F5C933"/>
<path d="M8.78516 5.2577C8.76562 5.17176 8.70703 5.14832 8.64062 5.16004C8.55469 5.17957 8.15625 5.3827 8.15625 5.3827C8.15625 5.3827 8.59766 5.42176 8.6875 5.40223C8.75391 5.39051 8.80469 5.34754 8.78516 5.2577Z" fill="#F5C933"/>
<path d="M8.75391 4.92578C8.75391 4.83594 8.69531 4.80078 8.62891 4.80078C8.53906 4.80078 8.11328 4.92578 8.11328 4.92578C8.11328 4.92578 8.53906 5.05078 8.62891 5.05078C8.69531 5.04687 8.75391 5.01562 8.75391 4.92578Z" fill="#F5C933"/>
<path d="M8.78516 4.58994C8.80078 4.5001 8.75391 4.45713 8.6875 4.44541C8.59766 4.42978 8.15625 4.46494 8.15625 4.46494C8.15625 4.46494 8.55078 4.66807 8.64062 4.6876C8.70703 4.69932 8.76953 4.67588 8.78516 4.58994Z" fill="#F5C933"/>
<path d="M8.88281 4.26953C8.91797 4.1875 8.87891 4.13281 8.81641 4.10937C8.73437 4.07422 8.29297 4.02734 8.29297 4.02734C8.29297 4.02734 8.64062 4.30469 8.72266 4.33984C8.78516 4.35938 8.85156 4.35156 8.88281 4.26953Z" fill="#F5C933"/>
<path d="M9.04297 3.97266C9.09375 3.89844 9.0625 3.83984 9.00781 3.80078C8.93359 3.75 8.50781 3.61719 8.50781 3.61719C8.50781 3.61719 8.79297 3.95703 8.86719 4.00781C8.92578 4.04297 8.99219 4.04687 9.04297 3.97266Z" fill="#F5C933"/>
<path d="M9.25781 3.71094C9.32031 3.64844 9.30469 3.58203 9.25781 3.53516C9.19531 3.47266 8.80469 3.25781 8.80469 3.25781C8.80469 3.25781 9.01953 3.64844 9.08203 3.71094C9.12891 3.75781 9.19141 3.77344 9.25781 3.71094Z" fill="#F5C933"/>
<path d="M10.4687 3.41797C11.3008 3.41797 11.9766 4.09375 11.9766 4.92969C11.9766 5.76172 11.3008 6.4375 10.4687 6.4375C9.63281 6.4375 8.95703 5.76172 8.95703 4.92969C8.95703 4.09375 9.63281 3.41797 10.4687 3.41797Z" fill="#F5C933"/>
<path d="M10.4688 3.21094C10.5586 3.21094 10.5898 3.15234 10.5898 3.08594C10.5898 2.99609 10.4688 2.57031 10.4688 2.57031C10.4688 2.57031 10.3438 2.99609 10.3438 3.08594C10.3438 3.15234 10.3789 3.21094 10.4688 3.21094Z" fill="#F5C933"/>
<path d="M10.8047 6.60556C10.7188 6.62509 10.6953 6.68759 10.707 6.75009C10.7227 6.83993 10.9297 7.23447 10.9297 7.23447C10.9297 7.23447 10.9688 6.78915 10.9492 6.70321C10.9336 6.63681 10.8906 6.58993 10.8047 6.60556Z" fill="#F5C933"/>
<path d="M10.4688 6.64062C10.3789 6.64062 10.3438 6.69922 10.3438 6.76562C10.3438 6.85547 10.4688 7.28125 10.4688 7.28125C10.4688 7.28125 10.5898 6.85547 10.5898 6.76562C10.5938 6.69531 10.5586 6.64062 10.4688 6.64062Z" fill="#F5C933"/>
<path d="M10.1328 6.60556C10.043 6.58993 10 6.63681 9.98829 6.70321C9.97266 6.78915 10.0078 7.23447 10.0078 7.23447C10.0078 7.23447 10.2109 6.83993 10.2305 6.75009C10.2422 6.68759 10.2227 6.62509 10.1328 6.60556Z" fill="#F5C933"/>
<path d="M9.8125 6.50789C9.73047 6.47274 9.67578 6.5118 9.65234 6.5743C9.61719 6.65633 9.57031 7.09774 9.57031 7.09774C9.57031 7.09774 9.84766 6.75008 9.88281 6.66805C9.90625 6.60945 9.89453 6.54305 9.8125 6.50789Z" fill="#F5C933"/>
<path d="M9.51563 3.5C9.58984 3.44922 9.58594 3.38281 9.55078 3.32812C9.5 3.25391 9.16016 2.96484 9.16016 2.96484C9.16016 2.96484 9.29687 3.39062 9.34375 3.46484C9.38281 3.51953 9.44141 3.54687 9.51563 3.5Z" fill="#F5C933"/>
<path d="M9.8125 3.33984C9.89453 3.30469 9.90625 3.23828 9.87891 3.17578C9.84375 3.09375 9.56641 2.74609 9.56641 2.74609C9.56641 2.74609 9.61719 3.1875 9.64844 3.26953C9.67578 3.33594 9.73047 3.375 9.8125 3.33984Z" fill="#F5C933"/>
<path d="M10.1328 3.24219C10.2188 3.22266 10.2422 3.16406 10.2305 3.09766C10.2148 3.00781 10.0078 2.61328 10.0078 2.61328C10.0078 2.61328 9.96876 3.05469 9.98829 3.14453C10.0039 3.21094 10.0469 3.26172 10.1328 3.24219Z" fill="#F5C933"/>
</svg>
