<svg width="372" height="16" viewBox="0 0 372 16" fill="none" xmlns="http://www.w3.org/2000/svg">
<path d="M15.519 0.21L9.114 14.91H6.426L0 0.21H2.961L7.854 11.55L12.789 0.21H15.519Z" fill="white"/>
<path d="M26.1325 11.508H18.7825L17.3335 14.91H14.5195L21.1345 0.21H23.8225L30.4585 14.91H27.6025L26.1325 11.508ZM25.2295 9.366L22.4575 2.94L19.7065 9.366H25.2295Z" fill="white"/>
<path d="M45.39 0.21V14.91H43.143L35.037 4.956V14.91H32.328V0.21H34.575L42.681 10.164V0.21H45.39Z" fill="white"/>
<path d="M55.65 15.12C53.62 15.12 52.038 14.553 50.904 13.419C49.77 12.271 49.203 10.633 49.203 8.505V0.21H51.933V8.4C51.933 11.284 53.179 12.726 55.671 12.726C58.149 12.726 59.388 11.284 59.388 8.4V0.21H62.076V8.505C62.076 10.633 61.509 12.271 60.375 13.419C59.255 14.553 57.68 15.12 55.65 15.12Z" fill="white"/>
<path d="M75.1257 11.508H67.7757L66.3267 14.91H63.5127L70.1277 0.21H72.8157L79.4517 14.91H76.5957L75.1257 11.508ZM74.2227 9.366L71.4507 2.94L68.6997 9.366H74.2227Z" fill="white"/>
<path d="M83.5649 2.52H78.6929V0.21H91.1669V2.52H86.2949V14.91H83.5649V2.52Z" fill="white"/>
<path d="M99.2701 15.12C97.2401 15.12 95.6581 14.553 94.5241 13.419C93.3901 12.271 92.8231 10.633 92.8231 8.505V0.21H95.5531V8.4C95.5531 11.284 96.7991 12.726 99.2911 12.726C101.769 12.726 103.008 11.284 103.008 8.4V0.21H105.696V8.505C105.696 10.633 105.129 12.271 103.995 13.419C102.875 14.553 101.3 15.12 99.2701 15.12Z" fill="white"/>
<path d="M122.127 15.12C120.643 15.12 119.299 14.798 118.095 14.154C116.905 13.496 115.967 12.593 115.281 11.445C114.609 10.297 114.273 9.002 114.273 7.56C114.273 6.118 114.616 4.823 115.302 3.675C115.988 2.527 116.926 1.631 118.116 0.987C119.32 0.329 120.664 0 122.148 0C123.352 0 124.451 0.21 125.445 0.630001C126.439 1.05 127.279 1.659 127.965 2.457L126.201 4.116C125.137 2.968 123.828 2.394 122.274 2.394C121.266 2.394 120.363 2.618 119.565 3.066C118.767 3.5 118.144 4.109 117.696 4.893C117.248 5.677 117.024 6.566 117.024 7.56C117.024 8.554 117.248 9.443 117.696 10.227C118.144 11.011 118.767 11.627 119.565 12.075C120.363 12.509 121.266 12.726 122.274 12.726C123.828 12.726 125.137 12.145 126.201 10.983L127.965 12.663C127.279 13.461 126.432 14.07 125.424 14.49C124.43 14.91 123.331 15.12 122.127 15.12Z" fill="white"/>
<path d="M130.581 0.21H133.311V14.91H130.581V0.21Z" fill="white"/>
<path d="M140.269 2.52H135.397V0.21H147.871V2.52H142.999V14.91H140.269V2.52Z" fill="white"/>
<path d="M149.92 0.21H152.65V14.91H149.92V0.21Z" fill="white"/>
<path d="M168.05 12.6V14.91H155.513V13.083L164.165 2.52H155.66V0.21H167.777V2.037L159.125 12.6H168.05Z" fill="white"/>
<path d="M181.576 12.621V14.91H170.551V0.21H181.282V2.499H173.281V6.321H180.379V8.568H173.281V12.621H181.576Z" fill="white"/>
<path d="M197.681 0.21V14.91H195.434L187.328 4.956V14.91H184.619V0.21H186.866L194.972 10.164V0.21H197.681Z" fill="white"/>
<path d="M206.177 15.12C205.043 15.12 203.944 14.959 202.88 14.637C201.83 14.315 200.997 13.888 200.381 13.356L201.326 11.235C201.928 11.711 202.663 12.103 203.531 12.411C204.413 12.705 205.295 12.852 206.177 12.852C207.269 12.852 208.081 12.677 208.613 12.327C209.159 11.977 209.432 11.515 209.432 10.941C209.432 10.521 209.278 10.178 208.97 9.912C208.676 9.632 208.298 9.415 207.836 9.261C207.374 9.107 206.744 8.932 205.946 8.736C204.826 8.47 203.916 8.204 203.216 7.938C202.53 7.672 201.935 7.259 201.431 6.699C200.941 6.125 200.696 5.355 200.696 4.389C200.696 3.577 200.913 2.842 201.347 2.184C201.795 1.512 202.46 0.98 203.342 0.588C204.238 0.196 205.33 0 206.618 0C207.514 0 208.396 0.112 209.264 0.336001C210.132 0.56 210.881 0.882 211.511 1.302L210.65 3.423C210.006 3.045 209.334 2.758 208.634 2.562C207.934 2.366 207.255 2.268 206.597 2.268C205.519 2.268 204.714 2.45 204.182 2.814C203.664 3.178 203.405 3.661 203.405 4.263C203.405 4.683 203.552 5.026 203.846 5.292C204.154 5.558 204.539 5.768 205.001 5.922C205.463 6.076 206.093 6.251 206.891 6.447C207.983 6.699 208.879 6.965 209.579 7.245C210.279 7.511 210.874 7.924 211.364 8.484C211.868 9.044 212.12 9.8 212.12 10.752C212.12 11.564 211.896 12.299 211.448 12.957C211.014 13.615 210.349 14.14 209.453 14.532C208.557 14.924 207.465 15.12 206.177 15.12Z" fill="white"/>
<path d="M227.889 0.21V14.91H225.159V8.61H217.557V14.91H214.827V0.21H217.557V6.279H225.159V0.21H227.889Z" fill="white"/>
<path d="M231.828 0.21H234.558V14.91H231.828V0.21Z" fill="white"/>
<path d="M244.582 0.21C245.856 0.21 246.962 0.42 247.9 0.84C248.852 1.26 249.58 1.862 250.084 2.646C250.588 3.43 250.84 4.361 250.84 5.439C250.84 6.503 250.588 7.434 250.084 8.232C249.58 9.016 248.852 9.618 247.9 10.038C246.962 10.458 245.856 10.668 244.582 10.668H241.264V14.91H238.534V0.21H244.582ZM244.456 8.358C245.646 8.358 246.549 8.106 247.165 7.602C247.781 7.098 248.089 6.377 248.089 5.439C248.089 4.501 247.781 3.78 247.165 3.276C246.549 2.772 245.646 2.52 244.456 2.52H241.264V8.358H244.456Z" fill="white"/>
<path d="M266.048 0.21C267.322 0.21 268.428 0.42 269.366 0.84C270.318 1.26 271.046 1.862 271.55 2.646C272.054 3.43 272.306 4.361 272.306 5.439C272.306 6.503 272.054 7.434 271.55 8.232C271.046 9.016 270.318 9.618 269.366 10.038C268.428 10.458 267.322 10.668 266.048 10.668H262.73V14.91H260V0.21H266.048ZM265.922 8.358C267.112 8.358 268.015 8.106 268.631 7.602C269.247 7.098 269.555 6.377 269.555 5.439C269.555 4.501 269.247 3.78 268.631 3.276C268.015 2.772 267.112 2.52 265.922 2.52H262.73V8.358H265.922Z" fill="white"/>
<path d="M284.65 14.91L281.647 10.605C281.521 10.619 281.332 10.626 281.08 10.626H277.762V14.91H275.032V0.21H281.08C282.354 0.21 283.46 0.42 284.398 0.84C285.35 1.26 286.078 1.862 286.582 2.646C287.086 3.43 287.338 4.361 287.338 5.439C287.338 6.545 287.065 7.497 286.519 8.295C285.987 9.093 285.217 9.688 284.209 10.08L287.59 14.91H284.65ZM284.587 5.439C284.587 4.501 284.279 3.78 283.663 3.276C283.047 2.772 282.144 2.52 280.954 2.52H277.762V8.379H280.954C282.144 8.379 283.047 8.127 283.663 7.623C284.279 7.105 284.587 6.377 284.587 5.439Z" fill="white"/>
<path d="M297.26 15.12C295.762 15.12 294.411 14.798 293.207 14.154C292.003 13.496 291.058 12.593 290.372 11.445C289.686 10.283 289.343 8.988 289.343 7.56C289.343 6.132 289.686 4.844 290.372 3.696C291.058 2.534 292.003 1.631 293.207 0.987C294.411 0.329 295.762 0 297.26 0C298.758 0 300.109 0.329 301.313 0.987C302.517 1.631 303.462 2.527 304.148 3.675C304.834 4.823 305.177 6.118 305.177 7.56C305.177 9.002 304.834 10.297 304.148 11.445C303.462 12.593 302.517 13.496 301.313 14.154C300.109 14.798 298.758 15.12 297.26 15.12ZM297.26 12.726C298.24 12.726 299.122 12.509 299.906 12.075C300.69 11.627 301.306 11.011 301.754 10.227C302.202 9.429 302.426 8.54 302.426 7.56C302.426 6.58 302.202 5.698 301.754 4.914C301.306 4.116 300.69 3.5 299.906 3.066C299.122 2.618 298.24 2.394 297.26 2.394C296.28 2.394 295.398 2.618 294.614 3.066C293.83 3.5 293.214 4.116 292.766 4.914C292.318 5.698 292.094 6.58 292.094 7.56C292.094 8.54 292.318 9.429 292.766 10.227C293.214 11.011 293.83 11.627 294.614 12.075C295.398 12.509 296.28 12.726 297.26 12.726Z" fill="white"/>
<path d="M318.108 7.392H320.691V13.251C319.935 13.853 319.053 14.315 318.045 14.637C317.037 14.959 316.001 15.12 314.937 15.12C313.439 15.12 312.088 14.798 310.884 14.154C309.68 13.496 308.735 12.593 308.049 11.445C307.363 10.297 307.02 9.002 307.02 7.56C307.02 6.118 307.363 4.823 308.049 3.675C308.735 2.527 309.68 1.631 310.884 0.987C312.102 0.329 313.467 0 314.979 0C316.211 0 317.331 0.203 318.339 0.609C319.347 1.015 320.194 1.61 320.88 2.394L319.158 4.074C318.038 2.954 316.687 2.394 315.105 2.394C314.069 2.394 313.145 2.611 312.333 3.045C311.535 3.479 310.905 4.088 310.443 4.872C309.995 5.656 309.771 6.552 309.771 7.56C309.771 8.54 309.995 9.422 310.443 10.206C310.905 10.99 311.535 11.606 312.333 12.054C313.145 12.502 314.062 12.726 315.084 12.726C316.232 12.726 317.24 12.474 318.108 11.97V7.392Z" fill="white"/>
<path d="M333.91 14.91L330.907 10.605C330.781 10.619 330.592 10.626 330.34 10.626H327.022V14.91H324.292V0.21H330.34C331.614 0.21 332.72 0.42 333.658 0.84C334.61 1.26 335.338 1.862 335.842 2.646C336.346 3.43 336.598 4.361 336.598 5.439C336.598 6.545 336.325 7.497 335.779 8.295C335.247 9.093 334.477 9.688 333.469 10.08L336.85 14.91H333.91ZM333.847 5.439C333.847 4.501 333.539 3.78 332.923 3.276C332.307 2.772 331.404 2.52 330.214 2.52H327.022V8.379H330.214C331.404 8.379 332.307 8.127 332.923 7.623C333.539 7.105 333.847 6.377 333.847 5.439Z" fill="white"/>
<path d="M349.186 11.508H341.836L340.387 14.91H337.573L344.188 0.21H346.876L353.512 14.91H350.656L349.186 11.508ZM348.283 9.366L345.511 2.94L342.76 9.366H348.283Z" fill="white"/>
<path d="M368.885 14.91L368.864 5.166L364.034 13.23H362.816L357.986 5.292V14.91H355.382V0.21H357.629L363.467 9.954L369.2 0.21H371.447L371.468 14.91H368.885Z" fill="white"/>
</svg>
