<svg width="22" height="17" viewBox="0 0 22 17" fill="none" xmlns="http://www.w3.org/2000/svg">
<path d="M0 13.6007C0 10.5269 0 7.45311 0 4.37933C0.0131455 4.34701 0.0356807 4.3147 0.0394366 4.28048C0.247887 2.50693 1.77277 0.961482 3.8554 0.991897C4.45634 1.0014 5.05728 0.993797 5.66009 0.993797C9.83474 0.993797 14.0075 0.989996 18.1822 0.995698C20.3681 0.997599 21.9962 2.64949 21.9981 4.86026C22 7.62229 22.0019 10.3824 21.9981 13.1444C21.9944 15.3115 20.3831 16.9786 18.2479 16.9843C13.416 16.9976 8.58216 16.9957 3.75023 16.9843C1.97183 16.9786 0.538967 15.8152 0.107042 14.0835C0.0676056 13.9238 0.0356808 13.7622 0 13.6007ZM19.7014 14.7374C17.6169 12.8042 15.5399 10.8767 13.4629 8.94913C13.0554 9.20575 12.6592 9.45287 12.2667 9.70379C11.5455 10.1657 10.8038 10.2075 10.0451 9.81784C9.73333 9.65817 9.42911 9.48138 9.12488 9.3046C8.9277 9.19054 8.73803 9.06508 8.54272 8.94342C6.45258 10.8824 4.37746 12.808 2.29859 14.7393C2.74178 15.167 3.2507 15.3305 3.81221 15.3305C8.60282 15.3343 13.3934 15.3343 18.184 15.3305C18.7512 15.3286 19.2676 15.167 19.7014 14.7374ZM19.4141 3.01257C19.0047 2.72173 18.5653 2.65139 18.1089 2.64949C13.707 2.64759 9.30516 2.64189 4.90141 2.64759C4.34366 2.64759 3.78592 2.69512 3.23005 2.73123C2.99343 2.74644 2.77746 2.82818 2.59718 3.01257C2.6554 3.05439 2.70047 3.08861 2.7493 3.11902C5.2939 4.80513 7.8385 6.48744 10.3793 8.17735C10.8188 8.47009 11.2225 8.44538 11.6526 8.15834C13.3296 7.03681 15.0141 5.92667 16.6967 4.81274C17.5944 4.21965 18.4901 3.62466 19.4141 3.01257ZM1.66197 13.0779C3.49296 11.3785 5.30141 9.70189 7.13052 8.00437C5.3108 6.79919 3.5061 5.60352 1.66197 4.38123C1.66197 7.29723 1.66197 10.1638 1.66197 13.0779ZM14.8695 8.00437C16.6986 9.69999 18.5089 11.3804 20.3324 13.0703C20.3324 10.1657 20.3324 7.29723 20.3324 4.38503C18.4883 5.60732 16.6892 6.79919 14.8695 8.00437Z" fill="white"/>
</svg>
