<svg width="20" height="20" viewBox="0 0 20 20" fill="none" xmlns="http://www.w3.org/2000/svg">
<path d="M14.7632 20H13.9306C13.8917 19.9922 13.8528 19.9689 13.8139 19.9689C13.0046 19.8755 12.2498 19.6342 11.5417 19.2217C11.4795 19.1828 11.3939 19.175 11.316 19.1828C11.0515 19.2062 10.7869 19.2451 10.5224 19.2606C9.42519 19.3307 8.34359 19.1984 7.29311 18.8715C6.34379 18.5836 5.4645 18.1477 4.65524 17.5796C3.97049 17.0971 3.36355 16.5367 2.83442 15.8907C2.20413 15.1203 1.70613 14.2719 1.34818 13.338C1.04471 12.5442 0.857962 11.7192 0.772368 10.8787C0.702336 10.1549 0.72568 9.43113 0.826837 8.71512C0.834618 8.62951 0.819055 8.52055 0.780149 8.44273C0.398864 7.80455 0.157644 7.12745 0.0564866 6.40367C-0.16139 4.7693 0.25102 3.30616 1.29372 2.03758C2.19635 0.940226 3.36355 0.286481 4.76418 0.0685665C6.07144 -0.133783 7.29311 0.115263 8.43696 0.769007C8.507 0.807921 8.60815 0.823486 8.69375 0.815703C9.17619 0.792355 9.65863 0.722311 10.1411 0.722311C11.4639 0.737877 12.7323 1.02584 13.9384 1.59397C14.6542 1.92863 15.3234 2.34889 15.9226 2.85476C16.6618 3.47738 17.2921 4.1856 17.8134 5.00278C18.436 5.97562 18.8639 7.03406 19.0896 8.16255C19.2997 9.19765 19.3308 10.2405 19.1752 11.2912C19.1596 11.3846 19.1907 11.4935 19.2374 11.5714C19.5098 12.0461 19.7121 12.5442 19.8366 13.0812C19.8988 13.3614 19.9455 13.6416 20 13.9217V14.7545C19.9922 14.7934 19.9844 14.8245 19.9767 14.8634C19.8677 15.953 19.502 16.9414 18.825 17.8053C18.0469 18.8015 17.0587 19.4708 15.8448 19.7976C15.4868 19.8988 15.1211 19.9377 14.7632 20Z" fill="#01B7EE"/>
<path d="M10.0716 15.9845C8.99084 16 7.93344 15.8836 6.96158 15.3635C6.12188 14.9056 5.49989 14.2458 5.15001 13.3454C5.02561 13.0194 4.94787 12.6779 5.04116 12.3286C5.18889 11.7465 5.78756 11.3972 6.38623 11.5136C6.88383 11.6145 7.12485 11.9716 7.33477 12.3829C7.4514 12.6236 7.56802 12.8564 7.7002 13.0893C8.03452 13.7025 8.57099 14.0285 9.24741 14.1449C9.90051 14.2613 10.538 14.2148 11.1678 14.0052C11.5255 13.8888 11.852 13.6947 12.093 13.4075C12.6528 12.7245 12.474 11.8474 11.7121 11.3972C11.2145 11.1022 10.6547 10.9858 10.1027 10.8616C9.10746 10.6287 8.09672 10.4192 7.15595 9.99227C6.5806 9.72836 6.08301 9.36355 5.70981 8.85126C5.44546 8.48645 5.28996 8.06731 5.28219 7.62488C5.27441 7.27559 5.26664 6.91078 5.34439 6.56926C5.52321 5.76202 6.02858 5.17211 6.7361 4.75297C7.55247 4.26396 8.44659 4.07768 9.37958 4.02334C10.0793 3.97677 10.7868 3.9923 11.4788 4.13977C12.4662 4.34935 13.3526 4.76849 13.9901 5.59125C14.27 5.95606 14.4411 6.35968 14.4488 6.8254C14.4644 7.64816 13.6014 8.26912 12.7539 7.8655C12.5751 7.78012 12.4429 7.58607 12.3185 7.41531C12.0775 7.08931 11.8753 6.74778 11.6343 6.42178C11.3855 6.08026 11.0279 5.89397 10.6158 5.82411C10.0793 5.73097 9.53508 5.71545 8.99861 5.83964C8.54766 5.94054 8.14337 6.13459 7.86347 6.51492C7.59135 6.87973 7.638 7.41531 7.97232 7.73355C8.39217 8.12164 8.91309 8.27688 9.44178 8.4166C10.3592 8.64945 11.2767 8.87455 12.1863 9.13069C12.8939 9.3325 13.5547 9.63522 14.1067 10.132C14.6354 10.6055 14.9076 11.2109 14.9775 11.9017C15.032 12.4373 14.9931 12.9728 14.7987 13.4851C14.4488 14.3933 13.7958 15.0142 12.925 15.4334C12.1552 15.806 11.3389 15.969 10.4914 16C10.3437 15.9922 10.2037 15.9845 10.0716 15.9845Z" fill="white"/>
</svg>
